<?xml version="1.0" encoding="UTF-8" standalone="no"?>
<!DOCTYPE svg PUBLIC "-//W3C//DTD SVG 1.1//EN" "http://www.w3.org/Graphics/SVG/1.1/DTD/svg11.dtd">
<svg width="100%" height="100%" viewBox="0 0 262 262" version="1.1" xmlns="http://www.w3.org/2000/svg" xmlns:xlink="http://www.w3.org/1999/xlink" xml:space="preserve" xmlns:serif="http://www.serif.com/" style="fill-rule:evenodd;clip-rule:evenodd;stroke-linejoin:round;stroke-miterlimit:2;">
    <g transform="matrix(1,0,0,1,-243,-1139)">
        <g>
            <path d="M254.516,1389.484C247.402,1382.37 243,1372.545 243,1361.7L243,1178.3C243,1156.61 260.61,1139 282.3,1139L465.7,1139C476.545,1139 486.37,1143.402 493.484,1150.516L254.516,1389.484Z" style="fill:rgb(74,110,182);"/>
            <path d="M493.484,1150.516C500.598,1157.63 505,1167.455 505,1178.3L505,1361.7C505,1383.39 487.39,1401 465.7,1401L282.3,1401C271.455,1401 261.63,1396.598 254.516,1389.484L493.484,1150.516Z" style="fill:rgb(14,22,38);"/>
        </g>
    </g>
</svg>
