<?xml version="1.0" encoding="UTF-8" standalone="no"?>
<!DOCTYPE svg PUBLIC "-//W3C//DTD SVG 1.1//EN" "http://www.w3.org/Graphics/SVG/1.1/DTD/svg11.dtd">
<svg width="100%" height="100%" viewBox="0 0 6970 2702" version="1.1" xmlns="http://www.w3.org/2000/svg" xmlns:xlink="http://www.w3.org/1999/xlink" xml:space="preserve" xmlns:serif="http://www.serif.com/" style="fill-rule:evenodd;clip-rule:evenodd;stroke-linejoin:round;stroke-miterlimit:2;">
    <g transform="matrix(1,0,0,1,0.000491,0.000417)">
        <g transform="matrix(4.166667,0,0,4.166667,0,0)">
            <g id="Signature">
                <g transform="matrix(1,0,0,1,420.2714,213.8049)">
                    <path d="M0,221.38C0.428,221.976 0.856,222.572 1.284,223.167C3.4,222.242 5.515,221.316 7.594,220.406C7.296,218.727 7.051,217.347 6.609,214.851C4.024,217.405 2.012,219.392 0,221.38M571.727,158.276C571.387,157.957 571.047,157.637 570.707,157.318C566.363,161.44 562.019,165.562 557.675,169.684C558.346,170.363 559.017,171.042 559.688,171.72C563.701,167.239 567.714,162.757 571.727,158.276M94.241,-9.84C100.774,-11.501 103.684,-18.138 100.435,-23.872C98.368,-19.191 96.401,-14.735 94.241,-9.84M-3.138,245.775C0.405,239.476 3.947,233.178 7.489,226.879C6.96,226.592 6.43,226.304 5.901,226.017C2.984,232.66 -4.558,236.817 -3.138,245.775M578.818,148.999C579.259,149.375 579.701,149.75 580.143,150.126C586.196,143.04 592.25,135.955 598.303,128.869C597.808,128.449 597.313,128.029 596.818,127.61C590.818,134.739 584.818,141.869 578.818,148.999M617.844,219.71C626.349,216.993 628.866,210.981 632.193,203.78C625.203,207.882 621.275,212.7 617.844,219.71M52.222,210.811C59.215,213.587 63.124,208.707 67.764,206.116C71.157,204.221 70.873,203.465 67.555,201.191C62.315,204.479 57.269,207.645 52.222,210.811M27.506,228.358C32.598,225.235 37.492,222.234 41.647,219.685C40.455,218.49 39.344,217.111 37.969,216.086C36.897,215.288 35.141,214.136 34.298,214.51C29.359,216.704 26.96,221.715 27.506,228.358M481.204,227.765C483.604,222.716 485.751,218.199 487.898,213.683C485.22,213.461 483.55,213.776 482.222,214.626C480.843,215.507 479.92,217.079 478.578,218.043C475.144,220.511 471.571,222.785 468.099,225.201C467.595,225.552 467.335,226.256 466.963,226.798C465.562,228.835 464.305,230.994 462.717,232.874C461.341,234.504 459.63,235.864 457.997,237.262C455.639,239.279 456.005,241.287 458.199,242.95C461.228,245.246 463.51,248.062 467.739,249.373C473.909,251.285 475.085,251.495 476.544,244.969C477.308,241.547 477.584,237.184 479.816,235.115C483.325,231.862 483.381,229.733 481.204,227.765M911.155,-55.932C910.542,-56.209 909.93,-56.487 909.317,-56.764C906.858,-53.598 904.445,-50.393 901.926,-47.273C898.511,-43.041 895.158,-38.744 891.496,-34.732C889.502,-32.548 886.891,-30.936 884.627,-28.986C883.844,-28.311 883.201,-27.442 882.609,-26.583C880.493,-23.509 878.825,-20.011 876.256,-17.39C871.241,-12.272 865.171,-8.113 860.563,-2.689C853.952,5.094 848.484,13.836 842.081,21.81C838.668,26.062 832.559,27.69 830.905,34.018C830.305,36.317 826.775,37.712 825.024,39.876C818.543,47.883 812.188,55.993 805.942,64.183C804.92,65.524 804.686,67.464 804.069,69.181C807.531,69.344 809.811,69.41 812.084,69.568C816.8,69.897 821.508,70.476 826.228,70.578C831.521,70.692 836.833,70.558 842.119,70.234C849.64,69.773 857.206,69.41 864.621,68.199C866.891,67.829 869.744,65.186 870.568,62.938C872.673,57.196 873.482,50.992 875.371,45.154C878.039,36.907 881.2,28.819 884.176,20.672C885.251,17.727 886.562,14.858 887.48,11.867C889.629,4.866 891.267,-2.309 893.745,-9.185C896.425,-16.622 901.163,-23.126 902.628,-31.252C903.672,-37.041 906.925,-42.415 909.01,-48.042C909.953,-50.588 910.453,-53.297 911.155,-55.932M645.929,104.162C645.511,106.622 645.697,108.606 644.856,109.948C641.006,116.087 636.845,122.031 632.859,128.086C632.236,129.033 632.031,130.245 631.475,131.247C630.037,133.834 628.696,136.502 626.986,138.905C620.79,147.613 614.043,155.961 608.305,164.955C603.458,172.552 601.042,181.698 593.574,187.628C593.145,187.969 593.024,188.748 592.849,189.349C590.903,196.061 589.969,203.267 583.624,207.802C583.131,208.154 582.762,208.825 582.565,209.423C579.818,217.791 577.139,226.181 574.384,234.546C572.648,239.816 570.724,245.027 569.092,250.328C568.736,251.486 569.264,252.917 569.385,254.222C569.863,254.455 570.341,254.689 570.818,254.923C574.35,251.834 579.346,249.369 581.005,245.483C582.693,241.527 585.096,239.476 588.184,237.333C592.228,234.527 596.094,231.463 600.171,228.709C601.59,227.749 603.359,227.116 605.056,226.795C608.638,226.118 610.031,224.005 610.198,220.537C610.266,219.109 610.665,217.434 611.52,216.349C616.326,210.247 621.324,204.298 626.242,198.284C629.261,194.592 633.002,191.715 635.17,187.019C636.739,183.621 641.176,181.544 644.414,178.811C645.15,179.815 645.982,180.949 647.031,182.38C656.727,175.309 661.199,164.534 668.296,155.907C672.679,150.58 676.08,144.417 680.69,139.323C681.992,137.884 686.12,138.352 688.736,138.927C691.312,139.494 692.609,141.804 691.725,144.715C690.631,148.318 689.96,152.118 688.378,155.492C682.027,169.04 675.579,182.551 668.783,195.881C665.604,202.116 661.554,207.909 657.893,213.898C655.87,217.206 653.472,220.346 651.911,223.858C650.557,226.904 650.145,230.369 649.557,232.696C651.384,231.573 654.366,229.686 657.402,227.892C659.469,226.67 662.375,226.096 663.579,224.33C667.311,218.859 670.497,213.012 674.083,207.424C674.715,206.439 674.665,205.032 675.241,203.991C677.136,200.567 678.97,197.079 681.206,193.879C684.408,189.297 687.943,184.949 691.601,180.152C693.954,185.187 693.907,185.285 691.079,188.975C687.422,193.746 683.735,198.499 680.276,203.41C679.59,204.385 679.873,206.041 679.71,207.383C681.06,207.044 682.924,207.153 683.676,206.292C687.691,201.7 691.959,197.194 695.14,192.042C700.386,183.543 704.864,174.571 709.674,165.803C711.078,163.245 712.513,160.703 713.934,158.154C713.563,157.846 713.192,157.538 712.821,157.23C707.075,160.585 704.932,167.79 699.25,171.361C699.656,169.078 700.315,166.992 701.6,165.416C707.46,158.229 713.506,151.195 719.446,144.073C719.94,143.482 720.576,142.513 720.404,141.942C719.152,137.769 722.747,136.71 724.887,134.748C725.724,133.979 727.618,133.278 727.543,132.768C726.834,127.997 730.525,125.81 732.944,122.835C740.574,113.453 748.142,104.021 756.283,93.928C754.083,93.546 751.953,93.149 749.813,92.813C748.547,92.614 746.898,92.963 746.058,92.282C743.065,89.852 739.818,90.318 736.437,90.694C731.02,91.297 725.592,91.84 720.156,92.232C706.256,93.235 692.354,94.237 678.441,95.038C672.517,95.379 666.562,95.159 660.625,95.332C659.555,95.363 658.392,95.893 657.464,96.49C653.464,99.064 649.535,101.75 645.929,104.162M-382.6,372.761C-385.159,372.761 -387.749,372.184 -388.138,372.864C-389.584,375.391 -390.223,378.365 -391.326,381.107C-392.311,383.559 -393.279,386.071 -394.677,388.292C-396.061,390.49 -398.756,392.105 -399.502,394.417C-401.407,400.329 -405.098,405.881 -404.438,412.371C-404.233,414.395 -402.506,417.733 -401.166,417.894C-397.471,418.337 -392.129,421.143 -390.977,414.022C-390.864,413.327 -389.508,412.791 -388.677,412.262C-380.165,406.84 -371.475,401.678 -363.188,395.933C-358.437,392.639 -354.473,388.236 -349.902,384.652C-346.36,381.874 -342.222,379.851 -338.707,377.043C-327.219,367.867 -316.155,358.137 -304.392,349.336C-298.837,345.178 -294.03,340.274 -288.618,336.027C-282.196,330.988 -275.849,325.854 -269.365,320.899C-268.705,320.394 -267.325,320.831 -266.269,320.831C-266.582,314.949 -263.166,310.006 -258.106,307.356C-255.789,306.142 -254.042,303.729 -252.243,301.679C-250.956,300.213 -250.273,298.166 -248.869,296.863C-243.131,291.54 -237.001,286.627 -231.418,281.153C-219.543,269.511 -207.864,257.689 -197.271,244.809C-188.216,233.799 -178.601,223.249 -169.199,212.526C-164.106,206.718 -159.099,200.823 -153.773,195.234C-145.532,186.585 -139.471,175.748 -128.873,170.36C-129.53,168.115 -130.066,166.282 -130.93,163.326C-135.989,165.766 -140.938,167.98 -145.723,170.506C-151.389,173.496 -156.943,176.702 -162.488,179.915C-167.139,182.61 -171.768,185.355 -176.291,188.257C-179.44,190.278 -182.386,192.613 -185.438,194.786C-186.647,195.647 -187.899,196.446 -189.127,197.281C-192.585,199.631 -195.947,202.14 -199.529,204.282C-201.857,205.674 -205.403,205.86 -206.832,207.764C-210.6,212.781 -215.007,216.51 -220.631,219.319C-224.211,221.107 -227.152,224.199 -230.32,226.78C-239.578,234.324 -248.424,242.446 -258.165,249.302C-266.302,255.029 -273.91,260.855 -278.703,269.772C-279.291,270.866 -280.433,271.726 -281.457,272.514C-289.593,278.774 -297.975,284.738 -305.851,291.307C-311.408,295.943 -315.785,302.075 -321.588,306.311C-331.911,313.845 -339.816,324.467 -351.807,329.818C-352.233,330.008 -352.597,330.44 -352.878,330.838C-358.171,338.338 -366.136,342.11 -374.06,346.245C-371.605,351.871 -376.762,353.613 -379.451,356.191C-379.254,362.371 -378.307,368.304 -382.6,372.761M501.346,225.289C500.961,224.65 500.575,224.01 500.189,223.37C504.074,220.772 507.98,218.203 511.83,215.555C512.746,214.925 514.266,213.915 514.174,213.27C513.268,206.913 519.018,205.337 522.116,201.909C524.873,198.858 527.842,195.998 530.628,192.972C537.237,185.791 543.697,178.47 550.416,171.394C553.349,168.306 557.122,165.984 559.896,162.78C565.739,156.03 570.94,148.722 576.843,142.028C582.583,135.52 588.871,129.495 594.917,123.257C595.364,122.795 596.134,122.364 596.194,121.853C596.764,117.014 600.041,117.311 602.848,118.962C606.452,121.081 606.563,118.294 607.582,116.484C606.151,117.012 604.719,117.54 603.288,118.067C602.947,117.716 602.606,117.365 602.266,117.014C605.758,111.849 609.25,106.684 613.003,101.131C609.046,100.384 605.254,99.062 601.476,99.099C596.159,99.15 590.865,100.369 585.537,100.793C579.395,101.282 573.219,101.334 567.074,101.802C563.658,102.061 560.276,102.779 556.88,103.294C549.197,104.461 541.541,105.884 533.821,106.705C529.073,107.21 524.227,106.799 519.827,106.799C520.086,107.844 520.985,109.459 520.531,110.069C519.656,111.243 518.12,112.249 516.676,112.624C507.687,114.958 498.442,115.417 489.329,118.236C480.864,120.855 472.389,123.186 464.392,127.074C461.639,128.412 458.695,129.546 456.292,131.37C451.781,134.795 447.625,138.681 443.276,142.321C440.753,144.433 438.09,146.378 435.584,148.509C431.376,152.087 427.331,155.861 423.053,159.35C419.501,162.247 414.236,164.101 412.364,167.761C409.333,173.689 409.894,181.39 412.55,187.077C417.599,197.887 423.714,208.381 433.255,216.278C436.512,218.974 439.484,219.887 442.995,217.092C441.271,213.057 446.195,206.995 451.215,206.764C452.108,210.501 453.002,214.244 454.064,218.689C458.548,213.938 462.318,209.943 466.089,205.947C466.51,206.337 466.932,206.726 467.354,207.116C465.063,210.014 462.756,212.899 460.485,215.812C455.418,222.31 455.036,222.948 455.533,224.262C456.602,223.408 457.715,222.696 458.612,221.774C468.51,211.597 478.253,201.265 488.365,191.306C490.071,189.626 493.367,188.737 495.863,188.855C500.704,189.085 506.082,196.511 505.363,201.354C504.624,206.337 503.558,211.27 502.702,216.237C502.184,219.243 501.794,222.271 501.346,225.289M360.895,182.973C354.226,179.966 348.542,177.382 342.834,174.851C341.952,174.46 340.932,174.388 340.024,174.042C335.301,172.241 330.668,170.159 325.858,168.638C320.761,167.027 315.373,166.299 310.341,164.535C302.463,161.774 295,157.609 286.181,158.741C284.914,158.904 283.566,158.422 282.254,158.249C272.815,157.002 263.406,155.371 253.928,154.636C246.502,154.059 238.986,154.731 231.519,154.52C229.957,154.475 228.506,152.787 226.876,152.23C225.525,151.768 222.801,151.469 222.705,151.762C220.886,157.289 218.011,156.71 214.379,153.565C213.834,153.094 212.821,152.954 212.041,152.992C199.26,153.606 186.854,156.357 174.579,159.755C169.15,161.257 163.893,163.651 158.381,164.526C146.571,166.401 135.1,169.455 124.424,174.628C118.163,177.661 111.809,180.18 105.369,182.715C99.419,185.056 94.057,188.89 88.576,191.988C90.099,194.518 91.978,196.233 91.681,197.39C90.416,202.311 91.894,207.953 87.529,212.195C86.42,213.273 87.038,216.126 86.84,218.413C91.502,216.848 95.708,215.925 99.455,214.072C106.043,210.814 112.009,206.026 118.849,203.613C130.646,199.453 142.871,196.459 154.994,193.274C169.139,189.558 173.247,194.138 178.339,204.625C178.982,205.949 179.737,207.218 180.441,208.513C181.553,207.393 182.654,206.262 183.781,205.157C187.412,201.598 189.855,196.801 195.447,195.351C200.694,193.99 205.768,191.965 211.623,189.996C211.602,189.969 212.474,191.045 213.951,192.866C210.32,195.593 206.857,197.925 203.709,200.623C199.537,204.197 195.56,208.004 191.602,211.817C189.501,213.84 188,217.126 185.557,218.027C179.821,220.141 176.7,225.034 173.603,229.228C169.536,234.736 164.366,237.769 158.707,240.856C154.925,242.919 153.252,241.67 151.078,238.674C149.328,236.263 146.655,234.521 144.174,232.286C152.972,227.476 160.082,220.556 160.988,208.541C159.074,208.541 157.414,208.208 155.952,208.605C151.889,209.708 147.812,210.878 143.921,212.465C139.843,214.127 135.966,216.284 132.023,218.268C130.843,218.862 129.796,219.744 128.587,220.252C118.841,224.346 109.055,228.344 99.315,232.452C94.037,234.678 88.852,237.124 83.578,239.359C76.258,242.461 66.29,238.189 63.89,231.008C62.046,225.49 60.705,224.985 56.383,229.083C49.786,235.336 44.222,242.789 35.363,246.279C34.766,246.515 34.325,247.12 33.748,247.439C28.317,250.446 23.152,252.383 16.494,249.752C13.221,248.46 8.594,244.606 4.446,249.493C3.08,251.103 1.045,252.146 -0.684,253.449C-1.923,251.514 -3.161,249.58 -4.525,247.449C-7.677,251.088 -7.834,254.319 -4.837,257.808C-4.12,258.644 -4.177,260.204 -4.033,261.45C-3.943,262.235 -4.14,263.053 -4.208,263.856C-3.448,263.886 -2.528,264.21 -1.953,263.898C1.09,262.247 4.067,260.471 7.027,258.673C10.877,256.333 12.765,257.218 13.545,261.994C12.963,262.164 12.366,262.47 11.758,262.496C4.345,262.813 1.151,265.203 -1.25,272.059C-1.828,273.712 -2.658,275.329 -3.645,276.777C-5.54,279.558 -7.815,282.093 -9.564,284.954C-10.459,286.417 -11.428,288.76 -10.855,290.022C-9.172,293.729 -7.466,298.019 -4.443,300.403C2.296,305.717 10.745,308.062 19.099,308.908C37.738,310.795 56.483,312.716 74.905,306.804C80.681,304.951 86.639,303.674 92.479,302.011C94.21,301.518 95.801,300.046 97.491,299.984C105.686,299.686 113.276,297.471 120.725,294.137C123.718,292.797 127.428,293.149 130.603,292.101C141.479,288.511 152.248,284.596 163.087,280.892C172.946,277.524 183.067,274.807 192.663,270.82C203.151,266.462 213.115,260.86 223.42,256.042C226.859,254.435 230.693,253.695 234.262,252.337C238.67,250.66 242.992,248.756 247.349,246.944C248.249,246.57 249.203,246.275 250.023,245.767C254.487,243.002 258.818,240.009 263.383,237.426C268.954,234.274 274.636,231.295 280.407,228.527C286.245,225.728 292.238,223.253 298.186,220.686C302.394,218.87 306.92,217.607 310.81,215.274C319.585,210.014 328.08,204.283 336.637,198.664C341.675,195.356 346.593,191.865 351.614,188.529C352.842,187.713 354.304,187.256 355.58,186.501C357.075,185.616 358.484,184.586 360.895,182.973M522.559,212.07C532.441,200.807 542.322,189.544 552.941,177.441C551.092,178.218 550.006,178.352 549.427,178.965C540.871,188.021 532.295,197.064 523.976,206.336C522.816,207.629 523.002,210.127 522.564,212.069C521.357,212.365 519.702,212.259 519.017,213.023C514.764,217.764 510.7,222.678 506.671,227.615C506.338,228.022 506.732,229.021 506.789,229.746C507.733,229.456 509.062,229.465 509.559,228.827C512.663,224.843 515.541,220.685 518.579,216.649C519.793,215.038 521.226,213.591 522.559,212.07M641.44,332.742C637.093,335.415 634.187,334.879 630.417,331.148C629.522,330.263 627.008,329.42 626.678,329.802C623.486,333.488 619.686,330.58 616.552,331.017C615.609,329.442 614.725,327.964 613.072,325.202C612.718,327.863 612.561,329.043 612.324,330.815C608.211,326.599 603.315,326.72 598.143,326.256C593.393,325.831 588.976,322.388 584.255,320.721C580.244,319.305 575.999,318.56 571.877,317.446C570.374,317.04 568.913,316.457 567.455,315.898C565.243,315.049 562.78,313.038 560.903,313.494C556.384,314.591 553.176,312.511 549.515,310.817C542.338,307.497 534.997,304.53 527.728,301.41C526.964,301.082 525.664,300.826 525.556,300.331C524.305,294.616 519.056,296.046 515.474,294.498C511.978,292.986 508.557,291.298 505.118,289.656C500.652,287.522 496.179,285.402 491.762,283.169C490.812,282.689 490.113,281.728 489.264,281.031C485.473,277.923 481.604,276.585 477.11,279.916C475.022,281.464 473.746,280.54 471.469,278.785C468.154,276.229 466.602,273.77 466.108,269.863C465.95,268.618 464.132,267.588 463.083,266.451C461.438,264.665 459.903,262.762 458.138,261.105C454.821,257.991 451.753,254.078 447.782,252.466C446.285,251.858 441.439,256.215 440.128,259.191C438.193,263.582 438.523,268.911 437.055,273.579C433.334,285.415 428.594,296.691 417.907,304.346C414.48,306.8 411.775,310.236 408.497,312.929C405.195,315.64 401.629,318.04 398.091,320.446C397.363,320.941 396.248,320.885 395.304,321.038C390.639,321.799 385.972,322.548 381.304,323.293C379.337,323.607 377.361,323.869 375.398,324.208C366.349,325.769 359.253,321.866 353.829,315.339C351.538,312.581 350.939,308.262 350.05,304.539C348.914,299.785 352.459,297.543 355.593,294.936C357.135,293.653 357.754,291.277 358.835,289.421C359.392,288.466 359.839,287.144 360.695,286.728C362.64,285.782 364.807,285.293 366.884,284.619C366.792,287.142 367.621,290.297 366.412,292.053C364.033,295.51 363.762,298.702 364.81,302.457C365.045,303.299 364.515,304.354 364.276,305.637C367.515,306.388 370.651,307.165 373.815,307.802C374.355,307.911 375.299,307.614 375.577,307.191C379.752,300.822 386.347,302.721 392.102,302.673C397.549,302.628 402.12,300.737 403.933,295.746C405.429,291.627 406.785,287.88 411.795,286.705C413.31,286.35 414.771,284.471 415.627,282.939C416.669,281.072 417.047,278.834 417.712,276.757C416.074,276.646 414.415,276.314 412.801,276.464C406.397,277.058 403.54,274.947 402.428,268.982C402.245,268.003 399.954,267.125 400.067,266.435C400.493,263.848 400.844,260.781 402.436,258.942C406.611,254.121 411.751,250.129 415.875,245.271C418.911,241.696 419.899,237.271 417.752,232.447C413.529,222.962 408.79,213.996 398.975,209.018C398.42,208.736 397.75,208.232 397.587,207.694C395.541,200.916 388.931,200.304 383.937,197.519C383.652,197.36 383.197,197.393 383.018,197.176C376.152,188.851 370.75,194.336 365.162,198.969C362.27,201.366 359.398,203.923 356.134,205.71C350.074,209.029 343.657,211.692 337.533,214.903C332.874,217.345 328.499,220.324 323.881,222.852C320.829,224.522 317.509,225.699 314.421,227.311C310.911,229.144 307.58,231.321 304.063,233.14C302.271,234.066 300.244,234.538 298.442,235.173C298.678,235.545 299.702,236.906 299.585,237.012C298.068,238.386 295.992,240.912 294.827,240.566C291.687,239.632 291.036,241.763 289.262,243.095C287.12,244.704 284.112,245.123 281.543,246.21C277.714,247.831 273.915,249.529 270.151,251.295C263.267,254.524 256.4,257.792 249.559,261.11C245.469,263.093 241.528,265.399 237.369,267.216C225.58,272.369 213.694,277.299 201.887,282.41C196.473,284.753 191.251,287.566 185.763,289.708C179.339,292.215 172.748,294.313 166.175,296.423C159.143,298.68 152.049,300.749 144.98,302.893C135.717,305.703 126.478,308.593 117.18,311.284C109.734,313.44 102.229,315.399 94.728,317.36C83.447,320.309 72.16,323.241 60.84,326.036C58.777,326.545 56.538,326.518 54.386,326.47C45.15,326.262 35.912,326.06 26.684,325.648C20.076,325.354 12.733,326.379 7.085,323.812C0.815,320.963 -7.112,321.072 -11.768,314.184C-14.556,310.06 -19.524,307.473 -22.912,303.663C-25.458,300.8 -27.91,297.298 -28.783,293.689C-29.439,290.977 -27.523,287.644 -26.392,283.163C-32.555,273.235 -24.98,264.367 -17.993,254.643C-23.074,255.707 -23.074,255.707 -23.944,260.515C-26.489,261.08 -29.37,260.968 -31.14,262.315C-33.045,263.765 -33.775,266.675 -35.249,268.787C-41.987,278.439 -51.757,283.802 -62.547,287.545C-67.192,289.156 -81.324,285.037 -82.877,280.949C-84.752,276.012 -86.03,270.412 -85.746,265.198C-85.351,257.972 -84.696,250.703 -80.105,244.086C-77.29,240.028 -77.004,234.189 -75.868,229.086C-75.806,228.81 -79.284,227.126 -79.611,227.481C-83.199,231.372 -86.974,235.237 -89.741,239.702C-93.575,245.89 -98.848,250.331 -104.652,254.356C-106.182,255.416 -107.849,256.278 -110.185,257.666C-111.68,256.577 -113.79,254.992 -115.948,253.478C-119.264,251.152 -121.322,253.203 -122.743,255.839C-123.737,257.682 -123.898,259.952 -124.667,261.939C-126.509,266.696 -128.482,271.402 -130.419,276.121C-132.658,281.578 -131.434,283.059 -125.724,284.665C-122.723,285.509 -118.23,288.088 -118.022,290.233C-117.673,293.834 -119.275,298.631 -121.808,301.202C-124.074,303.502 -128.811,304.568 -132.267,304.23C-137.827,303.686 -142.433,302.363 -146.425,296.034C-150.321,289.857 -148.504,283.67 -151.066,278.009C-151.742,276.517 -151.689,274.025 -150.867,272.652C-148.408,268.55 -148.413,263.765 -146.99,259.801C-145.442,255.489 -142.905,250.706 -140.142,246.606C-138.546,244.239 -137.513,242.948 -139.119,240.222C-139.685,239.261 -138.952,236.768 -137.985,235.802C-132.736,230.558 -127.092,225.708 -121.862,220.447C-118.722,217.289 -115.907,213.758 -113.317,210.131C-112.193,208.557 -112.024,206.312 -111.378,204.387C-110.972,203.177 -110.84,201.444 -109.977,200.89C-104.878,197.614 -100.326,194.7 -99.87,187.305C-99.636,183.502 -94.795,180.203 -93.158,176.216C-90.579,169.937 -88.676,163.335 -87.099,156.723C-86.694,155.024 -88.13,151.578 -89.518,151.058C-91.809,150.2 -95.272,150.175 -97.322,151.371C-104.716,155.685 -109.76,162.403 -114.001,169.737C-115.072,171.589 -116.208,173.43 -117.537,175.1C-125.014,184.492 -132.362,194 -140.142,203.137C-146.89,211.063 -154.448,218.305 -161.119,226.289C-169.707,236.567 -177.551,247.467 -186.166,257.721C-189.505,261.695 -194.208,264.497 -198.035,268.103C-200.207,270.15 -201.879,272.731 -203.74,275.1C-204.32,275.838 -204.633,276.84 -205.319,277.429C-212.475,283.57 -219.902,289.418 -226.771,295.861C-229.682,298.591 -231.073,302.892 -233.842,305.832C-236.841,309.016 -240.658,311.428 -244.085,314.216C-245.306,315.21 -247.221,316.161 -247.473,317.404C-249.077,325.307 -255.673,328.48 -261.228,332.742C-265.916,336.338 -270.364,340.246 -274.959,343.965C-279.422,347.578 -284.09,350.956 -288.392,354.749C-293.658,359.391 -298.269,364.852 -303.865,369.019C-307.944,372.057 -311.03,376.895 -316.762,377.513C-317.216,377.562 -317.726,377.805 -318.062,378.116C-322.223,381.965 -326.215,386.011 -330.554,389.645C-332.854,391.572 -336.368,392.27 -338.22,394.462C-341.075,397.843 -345.382,399.008 -348.187,402.74C-351.227,406.784 -356.301,409.313 -360.528,412.448C-362.564,413.958 -364.628,415.453 -366.802,416.749C-368.806,417.944 -370.974,418.864 -374.322,420.527C-375.734,426.516 -382.552,426.593 -388.362,428.244C-388.969,428.416 -390.13,428.162 -390.22,428.406C-392.487,434.554 -398.561,432.948 -402.956,434.342C-405.615,435.185 -408.943,433.618 -411.918,433.838C-416.47,434.175 -416.07,430.639 -417.606,428.112C-422.764,419.625 -419.06,411.332 -417.861,402.962C-417.398,399.728 -417.294,396.279 -416.019,393.369C-414.592,390.113 -413.588,386.579 -408.607,385.418C-406.08,384.829 -404.834,379.328 -402.719,376.247C-400.636,373.215 -398.74,369.408 -395.758,367.802C-391.991,365.773 -389.635,364.123 -391.629,359.321C-385.539,359.327 -385.553,354.485 -383.71,351.083C-381.78,347.521 -379.954,343.699 -377.209,340.824C-371.555,334.9 -364.424,330.276 -361.773,321.894C-361.569,321.246 -360.613,320.853 -360.051,320.297C-356.694,316.979 -353.047,314.148 -350.038,310.233C-346.363,305.451 -340.28,302.514 -335.219,298.805C-334.448,298.239 -333.154,298.014 -332.809,297.294C-326.962,285.086 -315.725,278.161 -306.063,269.656C-301.991,266.072 -299.125,260.69 -294.575,258.186C-288.178,254.666 -284.603,248.61 -279.185,244.324C-273.357,239.713 -268.29,234.145 -262.483,229.504C-258.314,226.172 -253.505,223.626 -248.923,220.822C-243.294,217.377 -237.6,214.036 -231.947,210.629C-231.382,210.288 -230.646,209.909 -230.425,209.369C-227.956,203.344 -222.171,201.16 -217.273,197.978C-215.086,196.558 -212.755,195.345 -210.432,194.148C-207.02,192.39 -204.284,189.293 -201.445,187.518C-195.516,183.812 -192.352,176.945 -184.667,175.019C-179.104,173.625 -174.474,168.686 -169.295,165.548C-164.124,162.414 -158.781,159.567 -153.531,156.564C-152.407,155.922 -151.364,155.14 -150.274,154.438C-148.355,153.202 -146.546,151.184 -144.486,150.881C-133.873,149.323 -125.825,142.172 -116.272,138.322C-111.743,136.496 -107.956,132.861 -103.76,130.159C-102.694,129.473 -101.346,129.223 -101.266,128.006C-100.079,125.713 -99.089,123.291 -97.665,121.156C-94.796,116.853 -91.721,112.685 -88.674,108.503C-85.983,104.809 -83.058,101.274 -80.549,97.463C-79.313,95.587 -79.094,93.05 -77.883,91.15C-73.409,84.126 -68.727,77.234 -64.093,70.312C-62.001,67.186 -59.858,64.093 -57.695,61.015C-57.138,60.223 -56.541,59.123 -55.749,58.89C-51.773,57.718 -50.627,54.132 -51.063,51.209C-51.801,46.253 -50.082,44.429 -45.199,44.551C-46.088,37.333 -43.818,31.73 -38.644,26.981C-36.819,25.305 -36.232,22.309 -34.992,19.962C-34.125,18.323 -32.842,16.854 -32.251,15.135C-31.817,13.873 -32.68,12.11 -32.145,10.948C-29.151,4.442 -25.895,-1.944 -22.765,-8.389C-22.411,-9.117 -22.283,-9.956 -22.054,-10.745C-20.115,-17.399 -17.651,-23.956 -16.382,-30.736C-15.043,-37.892 -12.195,-44.319 -9.169,-50.78C-8.816,-51.532 -9.007,-52.678 -9.259,-53.551C-10.83,-58.994 -9.002,-63.55 -6.267,-68.218C-5.035,-70.323 -4.718,-73.441 -5.124,-75.913C-5.721,-79.551 -2.909,-83.676 -6.879,-86.894C-10.772,-90.05 -13.706,-94.575 -19.991,-93.14C-22.178,-92.641 -24.749,-93.915 -27.162,-94.26C-28.213,-94.41 -29.436,-94.575 -30.36,-94.197C-35.783,-91.976 -41.054,-89.363 -46.543,-87.332C-53.073,-84.914 -59.962,-83.393 -66.342,-80.66C-72.158,-78.169 -77.464,-74.508 -83.063,-71.488C-90.188,-67.645 -97.49,-64.117 -104.499,-60.078C-108.061,-58.026 -111.152,-55.156 -114.444,-52.642C-114.958,-52.249 -115.548,-51.32 -115.876,-51.415C-121.83,-53.155 -124.586,-47.909 -128.136,-45.305C-136.99,-38.809 -145.072,-31.271 -153.778,-24.559C-156.961,-22.105 -161.297,-21.183 -164.627,-18.871C-168.513,-16.172 -171.863,-12.704 -175.467,-9.595C-177.58,-7.773 -179.735,-6.001 -182.15,-4.645C-184.956,-2.892 -187.961,-1.39 -190.535,0.653C-208.318,14.772 -226.073,28.928 -243.683,43.261C-247.297,46.203 -250.182,50.024 -253.564,53.273C-255.305,54.946 -257.195,56.78 -259.374,57.627C-266.774,60.504 -270.26,67.35 -275.441,72.5C-283.873,80.883 -292.671,88.9 -301.327,97.059C-307.005,102.412 -312.984,107.478 -318.329,113.141C-327.51,122.867 -336.225,133.03 -345.338,142.822C-346.679,144.262 -349.174,144.587 -351.055,145.58C-352.702,146.451 -354.236,147.536 -357.083,149.316C-355.795,146.606 -355.175,145.302 -353.959,142.746C-357.862,145.649 -360.796,147.584 -363.436,149.858C-366.77,152.73 -366.368,154.638 -362.431,157.943C-362.927,159.258 -363.42,160.396 -363.768,161.577C-363.898,162.018 -363.473,162.681 -363.672,163.035C-366.206,167.539 -368.751,172.04 -371.411,176.47C-373.379,179.748 -375.77,182.8 -377.424,186.218C-377.897,187.193 -376.454,189.095 -375.782,190.853C-377.204,192.125 -378.833,193.446 -380.305,194.924C-383.8,198.431 -387.729,197.472 -388.911,192.486C-390.701,184.937 -388.638,178.218 -385.515,171.067C-380.553,159.707 -369.849,152.708 -364.733,142.102C-360.844,134.036 -354.523,128.956 -348.971,122.764C-346.366,119.859 -344.705,116.122 -342.186,113.123C-335.246,104.861 -328.57,96.463 -319.361,90.243C-313.267,86.127 -308.261,80.32 -303.061,74.984C-295.016,66.729 -287.23,58.222 -279.297,49.857C-278.869,49.406 -278.111,49.247 -277.484,49.01C-275.989,48.443 -274.104,48.31 -273.037,47.303C-264.598,39.341 -256.466,31.048 -247.918,23.208C-243.444,19.105 -238.253,15.793 -233.508,11.973C-225.262,5.335 -217.178,-1.503 -208.875,-8.067C-206.83,-9.685 -204.081,-10.384 -201.88,-11.844C-199.638,-13.331 -197.649,-15.209 -195.597,-16.97C-194.605,-17.82 -193.824,-18.939 -192.772,-19.692C-183.077,-26.628 -172.697,-32.776 -163.792,-40.602C-153.518,-49.631 -140.822,-54.482 -130.054,-62.46C-125.721,-65.671 -121.831,-69.472 -117.552,-72.761C-115.494,-74.342 -113.061,-75.483 -110.696,-76.607C-105.614,-79.023 -100.467,-81.302 -95.344,-83.633C-85.787,-87.981 -77.408,-94.644 -66.874,-97.181C-61.038,-98.587 -55.598,-101.602 -49.942,-103.794C-45.157,-105.649 -40.393,-107.613 -35.486,-109.083C-27.916,-111.351 -20.326,-109.852 -12.898,-108.149C-9.358,-107.337 -5.798,-105.94 -2.687,-104.074C3.231,-100.524 6.283,-95.224 8.863,-88.484C11.885,-80.591 11.509,-74.01 8.64,-66.734C8.082,-65.322 8.424,-63.412 8.759,-61.817C9.987,-55.971 7.051,-51.315 4.619,-46.5C4.264,-45.796 3.557,-45.198 3.414,-44.472C2.262,-38.64 1.766,-32.609 -0.046,-26.997C-1.669,-21.968 -4.744,-17.413 -7.104,-12.612C-7.965,-10.861 -8.599,-9 -9.361,-7.199C-10.588,-4.297 -11.941,-1.443 -13.047,1.504C-14.457,5.261 -15.691,9.085 -16.969,12.891C-17.787,15.327 -18.175,17.99 -19.402,20.193C-23.441,27.442 -28.082,34.369 -31.865,41.741C-33.788,45.489 -34.211,49.981 -35.627,54.026C-36.316,55.994 -37.634,57.774 -38.832,59.526C-43.238,65.969 -47.419,72.594 -52.233,78.72C-58.8,87.075 -62.477,97.312 -70.329,104.91C-73.522,107.998 -76.003,112.216 -76.605,117.489C-77.005,120.991 -80.506,124.102 -82.457,127.481C-83.434,129.173 -84.357,131.019 -84.701,132.904C-84.89,133.936 -84.054,136.012 -83.286,136.229C-73.258,139.068 -71.794,147.009 -71.588,155.595C-71.464,160.763 -71.114,165.748 -74.243,170.762C-77.084,175.316 -77.932,181.09 -79.809,186.271C-81.595,191.198 -83.576,196.054 -85.846,201.909C-84.171,201.421 -82.083,201.411 -80.935,200.368C-77.216,196.989 -73.766,193.301 -70.37,189.588C-68.84,187.915 -67.72,185.873 -66.348,184.049C-64.496,181.586 -62.541,179.199 -60.698,176.73C-56.74,171.426 -52.849,166.073 -48.881,160.777C-47.02,158.293 -45.173,155.78 -43.098,153.48C-34.072,143.476 -24.87,133.629 -15.939,123.542C-12.673,119.854 -10.115,115.549 -6.961,111.751C-5.79,110.341 -3.792,109.64 -2.262,108.494C-1.415,107.86 -0.085,106.946 -0.118,106.208C-0.378,100.333 4.058,97.419 7.133,93.446C11.608,87.664 15.199,81.206 19.301,75.127C20.749,72.98 22.563,71.074 24.261,69.101C28.306,64.401 34.469,60.304 35.965,54.909C38.329,46.381 44.72,41.64 49.401,35.314C52.883,30.607 56.809,26.229 60.427,21.619C60.968,20.928 60.746,19.689 61.151,18.833C62.272,16.466 62.554,13.265 66.589,13.709C67.398,13.798 68.66,12.372 69.255,11.373C71.794,7.11 73.76,2.449 76.681,-1.518C81.682,-8.311 88.933,-13.313 92.078,-21.66C93.439,-25.271 95.967,-28.442 97.958,-31.817C98.124,-32.099 98.161,-32.596 98.383,-32.686C107.662,-36.438 110.363,-46.342 117.032,-52.655C129.424,-64.385 140.792,-77.194 152.623,-89.52C156.117,-93.161 159.56,-96.879 163.331,-100.219C168.537,-104.83 174.953,-106.354 181.674,-105.367C187.739,-104.477 190.614,-95.6 187.201,-89.914C185.432,-86.968 184.42,-83.525 182.419,-80.777C180.48,-78.116 177.734,-76.035 175.299,-73.745C173.904,-72.433 171.36,-71.357 171.165,-69.926C170.299,-63.552 165.497,-60.257 161.656,-56.076C159.791,-54.045 158.724,-51.275 157.345,-48.813C157.036,-48.261 157.106,-47.224 156.706,-47.036C147.688,-42.795 146.107,-32.53 139.713,-26.196C135.951,-22.468 131.944,-18.972 128.361,-15.084C125.903,-12.418 124.281,-8.966 121.758,-6.377C117.067,-1.562 111.989,2.879 107.078,7.482C106.838,7.706 106.565,7.946 106.442,8.236C102.698,17.01 96.812,24.102 89.991,29.899C86.459,32.902 83.96,37.111 80.94,40.729C80.112,41.721 79.129,42.599 78.141,43.439C77.16,44.271 75.952,44.864 75.07,45.779C70.695,50.318 66.279,54.827 62.111,59.552C59.359,62.673 57.262,66.387 54.416,69.408C46.492,77.821 38.11,85.813 30.348,94.368C25.975,99.189 22.473,104.797 18.57,110.044C17.784,111.101 17.011,112.173 16.152,113.17C13.846,115.844 10.831,117.803 10.644,122.126C10.552,124.237 8.064,126.225 6.719,128.306C4.459,131.801 2.421,135.456 -0.05,138.793C-1.653,140.957 -4.231,142.425 -5.723,144.64C-9.833,150.743 -13.589,157.083 -17.523,163.305C-17.946,163.974 -18.552,164.568 -19.181,165.058C-22.414,167.58 -24.941,170.114 -26.386,174.513C-28.171,179.949 -32.269,184.614 -35.286,189.661C-40.226,197.926 -46.344,205.778 -49.582,214.67C-51.89,221.006 -55.973,226.093 -58.29,232.155C-60.451,237.81 -61.917,243.728 -63.808,249.491C-65.124,253.502 -67.08,257.363 -67.87,261.459C-68.225,263.301 -66.43,265.556 -65.611,267.624C-63.747,266.874 -61.32,266.628 -60.114,265.287C-54.179,258.686 -47.842,252.866 -39.181,249.911C-37.683,249.401 -37.068,246.705 -35.664,245.442C-32.755,242.826 -29.441,240.655 -26.576,237.998C-23.99,235.6 -21.833,232.747 -19.384,230.193C-17.94,228.686 -16.295,227.372 -14.366,225.634C-14.295,225.837 -14.958,224.826 -14.716,224.511C-4.459,211.183 5.517,197.608 17.75,185.954C18.27,185.458 19.884,186.111 20.791,186.207C19.841,188.687 18.969,190.96 18.098,193.233C18.43,193.413 18.763,193.592 19.095,193.772C23.662,187.345 28.175,180.88 32.824,174.514C34.381,172.381 36.63,170.701 37.942,168.453C39.666,165.498 40.68,162.138 42.202,159.053C42.765,157.914 43.803,156.936 44.801,156.095C50.146,151.589 55.547,147.15 62.204,141.63C54.668,141.425 57.06,137.939 58.507,135.914C61.895,131.172 64.113,125.731 69.167,121.922C73.109,118.95 75.783,119.03 79.685,121.142C83.954,123.452 83.436,127.469 82.193,130.188C77.464,140.531 73.212,151.355 63.168,158.2C62.286,158.801 62.098,160.444 61.63,161.62C61.161,162.797 60.936,164.117 60.272,165.165C57.676,169.261 54.967,173.287 52.265,177.316C49.131,181.988 45.941,186.624 42.821,191.306C42.182,192.265 41.744,193.358 41.213,194.39C41.545,194.678 41.877,194.966 42.209,195.254C44.169,193.829 45.965,192.059 48.118,191.039C57.612,186.543 67.212,182.271 76.763,177.893C77.638,177.492 79.047,177.037 79.17,176.406C80.172,171.263 84.636,171.372 88.236,170.194C92.997,168.636 98.101,168.285 101.929,164.066C103.515,162.319 107.061,162.424 109.644,161.488C115.68,159.3 121.601,156.77 127.703,154.79C134.772,152.497 141.928,150.401 149.159,148.697C153.079,147.773 157.394,148.78 160.699,145.254C161.561,144.334 163.896,144.908 165.497,144.542C170.647,143.365 175.758,142.019 180.908,140.846C182.947,140.382 185.043,140.139 187.125,139.908C191.81,139.388 196.496,138.846 201.195,138.491C204.788,138.22 208.416,138.379 212.002,138.059C215.715,137.729 219.411,137.14 223.089,136.513C238.202,133.935 253.062,135.821 267.866,138.914C268.782,139.106 269.758,138.988 270.704,139.051C278.801,139.585 286.99,139.552 294.966,140.84C301.912,141.961 308.76,144.186 315.394,146.624C324.661,150.028 333.649,154.183 342.839,157.805C346.049,159.07 349.461,159.987 352.865,160.553C356.584,161.171 360.877,160.226 362.321,165.273C362.408,165.576 362.761,166.093 362.833,166.067C368.301,164.127 371.562,169.034 375.993,170.263C376.617,170.436 377.431,170.683 377.93,170.437C382.356,168.252 387.233,166.581 390.982,163.535C394.891,160.36 398.048,156.063 400.877,151.82C403.333,148.135 404.744,143.771 406.874,139.847C407.831,138.084 409.265,136.501 410.743,135.115C415.534,130.619 420.147,125.85 425.406,121.965C429.526,118.921 434.327,115.543 439.14,114.976C446.652,114.092 451.741,108.806 458.438,106.682C460.606,105.995 462.151,102.96 463.698,100.797C466.21,97.282 468.465,93.585 470.883,90.001C471.509,89.074 472.213,88.111 473.1,87.466C475.374,85.816 478.129,84.686 480.053,82.724C486.322,76.326 492.534,69.841 498.294,62.992C500.803,60.008 501.914,55.891 504.143,52.616C505.308,50.905 507.566,49.961 509.242,48.565C510.679,47.367 513.366,45.652 513.137,44.797C511.477,38.587 517.722,35.891 518.777,31.023C525.825,29.247 529.438,24.023 532.331,17.894C533.242,15.965 534.935,14.387 536.35,12.716C539.171,9.387 541.978,6.039 544.987,2.885C545.371,2.483 546.927,3.199 548.221,3.451C548.463,1.364 548.44,-0.961 549.033,-3.116C551.696,-12.786 557.154,-21.356 562.529,-29.399C566.988,-36.07 570.095,-43.703 575.47,-49.577C578.189,-52.548 580.01,-55.192 580.249,-59.074C580.287,-59.698 580.634,-60.377 581.02,-60.895C584.383,-65.406 588.095,-69.697 591.033,-74.466C592.277,-76.485 591.919,-79.49 592.228,-81.619C589.815,-82.677 587.99,-83.478 586.166,-84.278C586.468,-84.965 586.777,-86.241 587.072,-86.238C588.509,-86.221 589.942,-85.863 591.343,-85.632C593.443,-87.215 596.616,-88.473 597.854,-90.772C600.567,-95.811 602.802,-101.247 604.241,-106.779C605.089,-110.039 603.909,-113.791 603.867,-117.324C603.757,-126.524 598.201,-131.027 589.161,-129.467C582.544,-128.325 575.807,-127.85 569.222,-126.574C566.863,-126.117 564.792,-124.183 563.435,-123.408C559.717,-122.817 556.64,-122.517 553.659,-121.81C549.628,-120.853 545.669,-119.592 541.685,-118.438C540.9,-118.211 539.703,-118.091 539.444,-117.559C535.787,-110.042 527.946,-113.071 522.277,-110.691C520.835,-110.085 518.998,-110.273 517.698,-109.5C510.522,-105.238 503.653,-100.419 496.284,-96.54C491.528,-94.037 485.871,-93.276 481.016,-90.917C474.234,-87.621 467.831,-83.549 461.242,-79.851C460.423,-79.392 459.45,-78.9 458.562,-78.923C454.541,-79.027 451.8,-77.37 449.53,-73.986C448.627,-72.641 446.101,-72.342 444.272,-71.682C443.7,-71.476 442.831,-71.901 442.367,-71.609C435.101,-67.038 427.885,-62.39 420.644,-57.778C419.555,-57.084 418.466,-56.097 417.272,-55.909C410.608,-54.859 405.664,-50.724 400.334,-47.125C397.423,-45.159 393.537,-44.578 390.754,-42.49C381.421,-35.487 372.475,-27.968 363.176,-20.916C360.655,-19.005 357.13,-18.434 354.547,-16.579C347.174,-11.283 340.052,-5.64 332.823,-0.144C332.297,0.256 331.52,0.439 331.17,0.939C329.224,3.724 326.767,4.981 323.438,6.316C318.924,8.126 315.643,12.959 311.771,16.426C309.73,18.254 307.558,19.934 304.889,22.14C302.898,16.18 302.685,12.231 306.789,8.387C310.222,5.17 312.383,0.606 315.785,-2.657C320.518,-7.197 325.882,-11.081 330.977,-15.244C334.433,-18.068 337.854,-20.935 341.359,-23.696C344.292,-26.006 347.297,-28.228 350.318,-30.424C355.351,-34.083 360.48,-37.613 365.464,-41.338C372.316,-46.459 378.78,-52.159 385.942,-56.792C394.985,-62.642 404.401,-67.98 413.982,-72.908C418.344,-75.152 423.592,-75.618 428.212,-77.457C429.653,-78.03 430.352,-80.461 432.063,-83.067C434.26,-84.08 438.309,-85.243 441.523,-87.56C451.833,-94.99 463.601,-99.042 475.318,-103.39C478.067,-104.41 479.988,-107.51 482.694,-108.818C492.214,-113.421 501.914,-117.655 511.539,-122.041C515.234,-123.726 518.802,-125.329 523.187,-124.239C524.405,-123.937 526.596,-125.777 527.702,-127.149C530.314,-130.387 533.06,-132.164 537.602,-132.087C540.503,-132.037 543.346,-134.722 546.389,-135.528C551.609,-136.911 556.973,-137.749 562.263,-138.877C570.696,-140.676 579.088,-142.69 587.564,-144.253C590.228,-144.745 593.156,-144.362 595.879,-143.893C606.968,-141.987 616.283,-134.206 617.558,-124.593C618.704,-115.952 618.15,-107.155 615.773,-98.623C615.206,-96.587 614.192,-94.624 613.939,-92.559C612.657,-82.073 604.794,-74.958 600.544,-66.007C599.948,-64.753 599.432,-63.455 598.972,-62.145C598.263,-60.121 597.939,-57.899 596.915,-56.06C593.431,-49.802 590.008,-43.474 585.983,-37.566C583.126,-33.373 579.524,-29.624 575.885,-26.051C574.063,-24.262 573.055,-23.373 573.313,-20.173C573.573,-16.95 571.008,-13.015 568.718,-10.165C562.685,-2.659 558.666,5.949 554.035,14.248C551.637,18.547 548.762,22.626 545.729,26.513C540.969,32.614 535.657,38.291 531.015,44.474C525.923,51.256 520.272,57.481 514.526,63.697C509.77,68.841 505.998,74.882 501.648,80.414C499.331,83.361 496.629,86.004 494.28,88.929C493.541,89.849 493.385,91.237 492.664,93.241C495.561,92.911 497.648,92.717 499.722,92.427C505.221,91.659 510.729,90.939 516.201,90.009C518.285,89.656 520.655,89.274 522.247,88.059C527.204,84.275 532.783,82.788 538.832,82.124C554.235,80.434 569.617,78.559 585.006,76.748C590.817,76.065 596.608,75.084 602.438,74.731C608.568,74.36 614.733,74.591 620.883,74.535C623.681,74.51 626.478,74.391 629.276,74.38C634.98,74.355 638.767,70.864 642.17,66.996C647.282,61.185 651.927,54.954 657.184,49.285C660.737,45.454 665.076,42.359 668.922,38.784C671.168,36.697 673.289,34.434 675.207,32.042C684.925,19.923 694.536,7.719 704.23,-4.419C708.739,-10.065 713.525,-15.499 717.818,-21.3C719.314,-23.32 719.706,-26.155 720.743,-29.006C721.376,-28.042 721.839,-27.338 722.159,-26.85C724.683,-28.828 727.316,-30.53 729.45,-32.717C730.494,-33.787 730.764,-35.727 731.09,-37.333C731.281,-38.275 730.417,-39.645 730.84,-40.291C734.266,-45.516 737.767,-50.704 741.519,-55.698C742.619,-57.161 744.89,-59.156 746.128,-58.856C750.96,-57.689 750.629,-60.477 751.215,-63.688C751.789,-66.828 752.897,-70.311 754.923,-72.645C758.043,-76.237 760.93,-80.334 765.98,-81.992C767.471,-82.481 768.762,-84.744 769.302,-86.459C769.558,-87.272 767.832,-88.708 766.683,-90.309C766.911,-90.735 767.29,-91.851 767.995,-92.695C772.579,-98.187 778.238,-103.078 781.56,-109.235C784.41,-114.517 786.576,-120.31 790.167,-125.165C792.094,-127.769 795.078,-130.598 798.034,-131.229C804.4,-132.587 808.769,-125.147 805.754,-118.218C803.162,-112.26 799.971,-106.556 796.939,-100.796C794.99,-97.095 793.839,-93.093 789.643,-90.583C787.056,-89.036 785.729,-85.335 783.921,-82.547C777.727,-72.994 771.766,-63.281 765.299,-53.918C762.861,-50.387 759.268,-47.657 756.239,-44.525C755.671,-43.939 755.088,-43.24 754.846,-42.486C753.061,-36.917 748.972,-33.197 745.091,-29.075C741.356,-25.107 739.2,-19.703 735.755,-15.406C728.744,-6.659 721.373,1.803 714.071,10.313C709.587,15.538 704.882,20.574 700.446,25.838C699.434,27.039 699.32,28.956 698.442,30.316C697.421,31.897 696.06,33.272 694.756,34.651C693.898,35.557 692.176,36.215 692.046,37.151C691.089,44.051 686.248,48.476 682.334,53.607C678.029,59.251 674.345,65.369 670.391,71.28C670.764,71.751 671.137,72.223 671.51,72.694C675.388,72.694 679.27,72.807 683.144,72.673C693.995,72.299 704.843,71.804 715.694,71.395C722.415,71.142 729.558,72.299 735.743,70.367C741.838,68.463 746.928,70.32 752.503,70.674C760.4,71.175 768.339,71.044 776.261,71.095C777.321,71.102 779.255,70.725 779.318,70.306C780.465,62.669 787.284,59.308 791.511,54.056C797.019,47.213 802.531,40.269 808.846,34.204C816.73,26.633 822.709,17.579 829.841,9.446C833.502,5.271 836.975,0.912 840.278,-3.553C843.626,-8.078 849.145,-10.271 851.382,-16.42C852.872,-20.518 858.647,-22.909 862.047,-26.497C867.679,-32.441 872.891,-38.779 878.373,-44.868C884.802,-52.01 891.389,-59.012 897.79,-66.178C901.159,-69.95 904.258,-73.961 907.515,-77.834C911.288,-82.319 915.149,-86.732 918.887,-91.246C925.496,-99.228 931.727,-107.55 938.701,-115.197C945.89,-123.078 950.292,-132.325 954.298,-141.973C955.479,-144.818 957.848,-147.172 960.295,-149.209C961.067,-151.252 961.839,-153.295 962.939,-156.206C963.19,-155.419 963.188,-155.833 962.982,-156.007C961.21,-157.506 957.712,-159.317 957.932,-160.362C958.512,-163.115 960.163,-166.251 962.381,-167.903C965.382,-170.139 967.542,-172.096 967.721,-176.127C967.78,-177.454 969.907,-179.681 971.198,-179.763C974.278,-179.957 975.038,-181.869 974.868,-183.953C974.595,-187.298 975.255,-189.684 978.611,-190.954C979.269,-191.203 980.288,-192.293 980.178,-192.514C977.604,-197.649 982.743,-200.466 983.969,-204.387C985.566,-209.498 990.77,-211.747 995.547,-213.805L997.546,-213.805C998.231,-212.735 998.69,-211.368 999.641,-210.646C1004.745,-206.765 1004.055,-201.612 1003.093,-196.326C1001.59,-188.074 997.397,-181.536 990.942,-176.198C988.813,-174.437 987.953,-171.921 993.192,-170.79C990.614,-167.826 988.052,-165.501 986.297,-162.675C984.78,-160.233 984.622,-156.942 983.082,-154.522C979.884,-149.497 976.02,-144.899 972.697,-139.947C966.99,-131.442 960.64,-123.223 956.094,-114.119C948.882,-99.681 943.032,-84.569 936.41,-69.83C933.017,-62.279 928.799,-55.081 925.669,-47.431C921.577,-37.432 918.114,-27.172 914.542,-16.968C913.045,-12.693 911.957,-8.275 910.698,-3.917C910.469,-3.126 910.576,-2.055 910.081,-1.553C902.95,5.685 903.367,15.358 901.376,24.31C900.543,28.056 898.263,31.46 896.877,35.109C895.911,37.65 895.344,40.341 894.606,42.967C894.25,44.234 894.031,45.554 893.544,46.766C891.356,52.214 888.777,57.528 886.954,63.091C885.347,67.992 887.031,68.91 892.158,68.721C902.358,68.345 912.701,67.846 922.74,69.205C926.547,69.72 930.128,68.963 933.835,69.485C941.448,70.557 949.178,71.201 956.865,71.253C970.821,71.347 984.781,70.695 998.739,70.713C1007.525,70.724 1016.306,71.597 1025.094,71.703C1036.162,71.837 1047.242,71.288 1058.301,71.593C1066.238,71.812 1074.14,73.093 1082.076,73.613C1086.18,73.882 1090.349,73.203 1094.446,73.513C1104.833,74.299 1115.278,76.642 1125.544,75.973C1133.286,75.468 1139.829,77.563 1146.766,79.528C1147.992,79.875 1149.386,79.626 1150.702,79.663C1154.553,79.771 1158.405,79.858 1162.255,80.002C1167.532,80.199 1172.806,80.494 1178.084,80.652C1184.39,80.842 1190.334,81.788 1196.35,84.334C1201.016,86.309 1206.734,85.837 1211.993,86.367C1214.929,86.664 1218.112,86.171 1220.768,87.155C1223.701,88.241 1226.956,90.077 1228.613,92.558C1230.527,95.424 1232.383,96.637 1236.105,96.411C1234.436,94.539 1233.082,93.021 1231.729,91.503C1231.874,91.148 1232.019,90.794 1232.164,90.439C1234.07,90.744 1235.976,91.05 1237.866,91.352C1237.234,96.638 1239.427,98.067 1243.467,95.587C1244.876,94.722 1246.291,93.869 1247.837,92.93C1249.023,93.748 1250.22,94.573 1252.515,96.154C1246.658,97.176 1241.535,97.289 1237.074,99.063C1232.411,100.918 1229.143,98.234 1225.255,97.488C1223.885,97.225 1222.203,97.224 1220.984,97.79C1217.227,99.536 1213.933,99.789 1210.664,96.661C1209.782,95.816 1207.958,95.728 1206.555,95.686C1198.687,95.452 1190.816,95.362 1182.948,95.165C1181.312,95.124 1179.687,94.745 1178.051,94.689C1166.071,94.283 1154.073,94.178 1142.115,93.428C1136.415,93.071 1130.815,90.86 1125.125,90.634C1112.985,90.152 1100.815,90.514 1088.661,90.313C1085.411,90.259 1081.852,90.096 1079.027,88.746C1076.523,87.549 1074.721,87.949 1072.283,88.235C1066.791,88.88 1061.199,88.783 1055.647,88.784C1044.821,88.787 1033.994,88.599 1023.167,88.589C1017.267,88.583 1011.367,88.781 1005.468,88.887C1005.301,88.89 1005.113,88.835 1004.971,88.894C993.969,93.419 983.036,87.417 972.033,88.662C968.086,89.109 964.043,89.079 960.073,88.821C957.637,88.663 955.259,87.643 952.847,87.043C951.736,86.766 950.573,86.269 949.488,86.382C942.005,87.166 934.536,88.787 927.062,88.787C916.925,88.787 906.839,89.983 896.529,87.459C891.08,86.125 884.449,89.581 878.367,90.943C878.063,91.012 877.828,91.712 877.691,92.158C874.976,100.948 872.574,109.849 869.46,118.495C867.891,122.849 865.039,126.741 862.477,131.367C864.855,133.447 862.728,135.452 861.315,138.439C859.614,142.034 860.304,146.696 859.568,150.826C858.937,154.359 857.687,157.778 856.833,161.277C856.017,164.622 855.464,168.032 854.592,171.36C854.1,173.238 853.209,175.013 852.467,176.823C852.352,177.102 851.847,177.435 851.903,177.539C854.05,181.512 850.458,183.97 849.577,187.156C848.082,192.568 847.791,198.303 846.479,203.78C845.95,205.992 844.141,207.93 842.79,209.908C839.629,214.533 841.118,220.094 839.651,225.027C837.412,232.556 835.888,240.232 832.516,247.517C829.316,254.429 827.979,262.185 825.589,269.494C824.476,272.895 822.546,276.03 821.447,279.435C819.073,286.788 814.657,292.663 809.666,298.461C806.556,302.075 802.918,305.666 800.496,309.271C795.072,317.347 787.014,320.992 779.588,325.806C775.089,328.723 770.003,330.737 763.76,333.869C765.21,331.309 765.652,329.285 766.853,328.608C776.085,323.405 780.643,313.932 787.408,306.499C788.466,305.336 788.571,303.354 789.504,302.023C791.386,299.339 793.161,296.37 795.668,294.385C798.884,291.838 803.431,290.767 802.779,285.171C802.665,284.198 804.28,283.111 804.84,281.953C805.85,279.863 806.685,277.688 807.546,275.529C807.723,275.085 807.526,274.246 807.778,274.112C814.479,270.566 812.147,263.165 814.673,257.834C816.197,254.618 817.134,250.9 817.368,247.344C817.842,240.157 823.109,234.612 823.295,227.195C823.45,221.003 825.486,214.855 826.723,208.694C826.883,207.894 827.046,206.969 827.54,206.381C830.952,202.322 832.873,197.96 832.488,192.388C832.352,190.423 834.782,188.345 835.815,186.21C836.396,185.009 836.855,183.568 836.788,182.266C836.318,173.176 837.82,164.52 841.806,156.283C842.719,154.397 843.13,152.25 843.646,150.192C845.395,143.219 846.15,135.818 849.012,129.342C854.002,118.049 856.146,106.113 859.054,94.32C859.851,91.09 859.312,89.459 855.281,89.55C844.287,89.799 833.279,89.423 822.284,89.655C815.436,89.799 808.566,90.316 801.769,91.167C792.159,92.371 781.416,90.052 774.171,99.321C769.597,105.172 765.13,111.11 760.412,116.843C758.664,118.967 756.09,120.415 754.345,122.541C752.677,124.573 751.78,127.219 750.224,129.363C744.411,137.368 738.427,145.248 732.584,153.232C727.74,159.849 723.135,166.645 718.137,173.141C716.734,174.966 714.319,176.013 713.256,176.778C709.818,183.323 706.989,189.482 703.46,195.211C699.688,201.335 695.53,207.271 691.047,212.897C684.391,221.25 677.451,229.392 670.355,237.378C662.429,246.299 653.868,254.677 646.261,263.852C643.431,267.265 640.856,270.186 636.622,271.626C632.518,273.022 623.48,269.234 623.602,265.518C623.728,261.685 624.516,257.556 626.219,254.158C629.725,247.164 633.998,240.549 638.026,233.82C640.179,230.222 642.626,226.792 644.654,223.128C645.823,221.014 646.746,218.644 647.186,216.279C647.676,213.646 647.143,211.263 642.773,213.428C644.291,209 645.857,206.425 649.699,204.341C652.724,202.701 654.153,198.122 656.902,193.913C644.271,194.276 640.093,203.088 636.131,210.458C629.552,222.699 620.169,231.96 609.674,240.491C609.046,241.002 607.924,241.615 607.957,242.121C608.385,248.628 603.048,251.071 599.264,254.53C590.98,262.1 582.822,269.837 574.154,276.947C568.146,281.875 556.127,280.624 551.612,274.538C549.706,271.968 549.437,267.683 549.559,264.217C549.829,256.562 550.401,248.862 551.686,241.322C552.371,237.304 555.116,233.682 556.375,229.706C559.582,219.579 563.386,209.833 571.035,202.088C570.662,193.245 579.371,189.157 581.782,181.669C582.803,178.498 585.483,175.892 587.195,172.907C591.886,164.725 596.477,156.487 601.063,148.245C601.514,147.435 601.657,146.452 602.039,145.247C598.015,144.407 595.573,145.998 593.4,148.86C588.947,154.726 584.421,160.547 579.677,166.179C575.719,170.877 571.536,175.405 567.225,179.785C559.621,187.515 550.733,194.296 544.59,203.024C541.359,207.616 536.847,209.395 533.551,213.066C530.016,217.003 526.677,221.127 523.425,225.303C518.482,231.652 513.706,238.131 508.821,244.525C507.341,246.461 505.745,248.31 504.182,250.182C499.822,255.405 495.45,260.619 490.795,266.181C499.365,270.822 507.598,274.764 515.265,279.6C521.252,283.376 528.608,285.261 532.904,291.562C533.143,291.914 533.773,292.207 534.207,292.188C542.976,291.814 549.43,297.518 556.891,300.613C559.993,301.9 563.591,301.954 566.925,302.733C571.983,303.915 577.023,305.184 582.034,306.552C583.101,306.843 584.226,307.524 584.958,308.35C589.708,313.711 595.823,313.592 602.4,314.006C610.727,314.53 618.92,317.075 627.189,318.658C630.739,319.337 634.318,319.928 637.911,320.301C640.865,320.608 642.899,321.71 641.936,324.907C641.276,327.102 640.38,330.249 636.797,327.356C636.447,327.074 634.913,328.257 633.691,328.881C636.756,330.478 639.05,331.674 641.345,332.869L641.44,332.742Z" style="fill:rgb(74,110,182);fill-rule:nonzero;"/>
                </g>
                <g transform="matrix(1,0,0,1,1192.9569,556.0831)">
                    <path d="M0,-28.343C-0.447,-20.868 -5.83,-17.741 -10.195,-14.028C-17.556,-7.768 -26.413,-4.273 -35.823,-2.389C-41.297,-1.294 -46.911,0 -52.414,-0.186C-58.207,-0.382 -63.947,-2.219 -69.701,-3.384C-70.434,-3.533 -71.157,-4.287 -71.806,-4.197C-75.649,-3.662 -79.461,-2.9 -83.301,-2.337C-86.159,-1.919 -89.083,-0.853 -91.251,-4.337C-91.739,-5.121 -94.516,-4.848 -96.111,-4.49C-98.344,-3.989 -100.231,-3.198 -101.128,-6.355C-101.938,-9.208 -101.742,-11.363 -98.376,-11.948C-92.596,-12.952 -86.799,-14.3 -81.024,-11.824C-79.996,-11.384 -78.848,-10.793 -77.806,-10.88C-66.322,-11.839 -54.847,-12.924 -43.369,-13.962C-36.554,-14.578 -29.732,-15.134 -22.922,-15.804C-21.513,-15.942 -19.962,-16.163 -18.782,-16.861C-12.468,-20.598 -6.251,-24.499 0,-28.343" style="fill:rgb(74,110,182);fill-rule:nonzero;"/>
                </g>
                <g transform="matrix(1,0,0,1,712.4553,280.7701)">
                    <path d="M0,-55.248C1.553,-49.759 4.411,-44.227 4.232,-38.795C4.097,-34.713 0.184,-30.683 -2.277,-26.774C-4.031,-23.989 -6.168,-21.446 -8,-18.976C-4.709,-17.887 -1.369,-17.792 0.11,-16.086C3.312,-12.395 -0.022,-5.539 -5.312,-3.827C-6.718,-3.372 -8.334,-3.193 -9.475,-2.366C-12.769,0.022 -15.53,-0.259 -18.697,-2.809C-22.596,-5.948 -25.909,-9.144 -24.321,-14.67C-23.507,-17.506 -22.147,-20.186 -21.352,-23.025C-20.822,-24.914 -20.446,-27.02 -20.721,-28.925C-21.276,-32.765 -16.864,-37.216 -12.748,-36.594C-6.33,-35.623 -6.605,-35.853 -5.979,-42.253C-5.546,-46.672 -3.532,-50.936 -2.225,-55.27C-1.483,-55.263 -0.742,-55.255 0,-55.248" style="fill:rgb(74,110,182);fill-rule:nonzero;"/>
                </g>
                <g transform="matrix(1,0,0,1,1061.6161,543.6813)">
                    <path d="M0,2.993C2.27,1.282 4.32,-0.964 6.865,-2.009C10.201,-3.379 14.065,-4.86 17.458,-4.419C25.497,-3.375 26.269,-1.907 26.656,7.853C20.247,7.144 13.977,6.598 7.758,5.695C5.086,5.307 1.555,6.691 0.109,2.849C0.095,2.866 0,2.993 0,2.993" style="fill:rgb(74,110,182);fill-rule:nonzero;"/>
                </g>
            </g>
        </g>
    </g>
</svg>
