<?xml version="1.0" encoding="UTF-8" standalone="no"?>
<!DOCTYPE svg PUBLIC "-//W3C//DTD SVG 1.1//EN" "http://www.w3.org/Graphics/SVG/1.1/DTD/svg11.dtd">
<svg width="100%" height="100%" viewBox="0 0 308 58" version="1.1" xmlns="http://www.w3.org/2000/svg" xmlns:xlink="http://www.w3.org/1999/xlink" xml:space="preserve" xmlns:serif="http://www.serif.com/" style="fill-rule:evenodd;clip-rule:evenodd;stroke-linejoin:round;stroke-miterlimit:2;">
    <g transform="matrix(1,0,0,1,-614.019374,-728.42555)">
        <g transform="matrix(1,0,0,1.06996,0,0)">
            <g id="Diorama-Logo" serif:id="Diorama Logo" transform="matrix(0.269046,0,0,0.251454,-15.501174,571.915714)">
                <g id="Diorama-Logomark" serif:id="Diorama Logomark">
                    <g transform="matrix(1.111475,0,0,1.111475,1600.583183,46.780789)">
                        <path d="M787.743,454.721C788.173,454.473 788.724,454.62 788.972,455.05C789.221,455.48 789.073,456.031 788.643,456.279L786.985,457.236C786.555,457.485 786.004,457.337 785.756,456.907C785.508,456.477 785.655,455.926 786.085,455.678L787.743,454.721ZM779.453,459.508C779.883,459.259 780.433,459.407 780.682,459.837C780.93,460.267 780.782,460.818 780.352,461.066L777.036,462.98C776.606,463.229 776.055,463.081 775.807,462.651C775.559,462.221 775.706,461.67 776.136,461.422L779.453,459.508ZM769.504,465.252C769.934,465.003 770.484,465.151 770.733,465.581C770.981,466.011 770.833,466.562 770.403,466.81L767.087,468.725C766.657,468.973 766.106,468.825 765.858,468.395C765.61,467.965 765.757,467.415 766.187,467.166L769.504,465.252ZM759.555,470.996C759.985,470.747 760.535,470.895 760.784,471.325C761.032,471.755 760.884,472.306 760.454,472.554L757.138,474.469C756.708,474.717 756.157,474.569 755.909,474.139C755.661,473.709 755.808,473.159 756.238,472.91L759.555,470.996ZM749.606,476.74C750.036,476.491 750.587,476.639 750.835,477.069C751.083,477.499 750.936,478.05 750.505,478.298L747.189,480.213C746.759,480.461 746.209,480.313 745.96,479.883C745.712,479.453 745.86,478.902 746.29,478.654L749.606,476.74ZM739.657,482.484C740.087,482.235 740.638,482.383 740.886,482.813C741.134,483.243 740.987,483.794 740.557,484.042L737.24,485.957C736.81,486.205 736.26,486.057 736.011,485.627C735.763,485.197 735.911,484.647 736.341,484.398L739.657,482.484ZM729.708,488.228C730.138,487.979 730.689,488.127 730.937,488.557C731.185,488.987 731.038,489.538 730.608,489.786L727.291,491.701C726.861,491.949 726.311,491.801 726.062,491.371C725.814,490.941 725.962,490.391 726.392,490.142L729.708,488.228ZM719.759,493.972C720.189,493.723 720.74,493.871 720.988,494.301C721.236,494.731 721.089,495.282 720.659,495.53L717.342,497.445C716.912,497.693 716.362,497.545 716.113,497.115C715.865,496.685 716.013,496.135 716.443,495.886L719.759,493.972ZM709.81,499.716C710.24,499.467 710.791,499.615 711.039,500.045C711.287,500.475 711.14,501.026 710.71,501.274L707.394,503.189C706.964,503.437 706.413,503.289 706.165,502.859C705.916,502.429 706.064,501.879 706.494,501.63L709.81,499.716ZM699.861,505.46C700.291,505.211 700.842,505.359 701.09,505.789C701.338,506.219 701.191,506.77 700.761,507.018L697.445,508.933C697.015,509.181 696.464,509.033 696.216,508.603C695.967,508.173 696.115,507.623 696.545,507.374L699.861,505.46ZM689.912,511.204C690.342,510.955 690.893,511.103 691.141,511.533C691.389,511.963 691.242,512.514 690.812,512.762L687.496,514.677C687.066,514.925 686.515,514.777 686.267,514.347C686.018,513.917 686.166,513.367 686.596,513.118L689.912,511.204ZM679.963,516.948C680.393,516.699 680.944,516.847 681.192,517.277C681.441,517.707 681.293,518.258 680.863,518.506L677.547,520.421C677.117,520.669 676.566,520.521 676.318,520.091C676.069,519.661 676.217,519.111 676.647,518.862L679.963,516.948ZM670.014,522.692C670.444,522.443 670.995,522.591 671.243,523.021C671.492,523.451 671.344,524.002 670.914,524.25L669.256,525.207C668.826,525.456 668.275,525.308 668.027,524.878C667.779,524.448 667.926,523.897 668.356,523.649L670.014,522.692Z" style="fill:rgb(74,110,182);"/>
                    </g>
                    <g transform="matrix(1.111475,0,0,1.111475,1600.583183,46.780789)">
                        <path d="M787.738,456.276C787.31,456.025 787.166,455.474 787.417,455.045C787.668,454.617 788.22,454.473 788.648,454.724L790.282,455.681C790.71,455.932 790.854,456.484 790.603,456.912C790.352,457.341 789.8,457.485 789.372,457.234L787.738,456.276ZM795.906,461.063C795.478,460.812 795.334,460.26 795.585,459.832C795.836,459.403 796.388,459.259 796.816,459.51L800.083,461.425C800.512,461.676 800.656,462.228 800.405,462.656C800.154,463.085 799.602,463.229 799.174,462.978L795.906,461.063ZM805.708,466.807C805.28,466.556 805.136,466.004 805.387,465.576C805.638,465.147 806.19,465.003 806.618,465.255L809.885,467.169C810.314,467.42 810.458,467.972 810.207,468.4C809.956,468.829 809.404,468.973 808.976,468.722L805.708,466.807ZM815.51,472.551C815.082,472.3 814.938,471.748 815.189,471.32C815.44,470.891 815.991,470.747 816.42,470.999L819.687,472.913C820.116,473.164 820.26,473.716 820.009,474.144C819.757,474.573 819.206,474.717 818.777,474.466L815.51,472.551ZM825.312,478.295C824.883,478.044 824.739,477.492 824.99,477.064C825.241,476.635 825.793,476.491 826.222,476.743L829.489,478.657C829.917,478.908 830.061,479.46 829.81,479.888C829.559,480.317 829.007,480.461 828.579,480.21L825.312,478.295ZM835.113,484.039C834.685,483.788 834.541,483.236 834.792,482.808C835.043,482.379 835.595,482.235 836.023,482.486L839.29,484.401C839.719,484.652 839.863,485.204 839.612,485.632C839.361,486.061 838.809,486.205 838.381,485.954L835.113,484.039ZM844.915,489.783C844.487,489.532 844.343,488.98 844.594,488.552C844.845,488.123 845.396,487.979 845.825,488.23L849.092,490.145C849.521,490.396 849.665,490.948 849.414,491.376C849.162,491.805 848.611,491.949 848.182,491.698L844.915,489.783ZM854.717,495.527C854.289,495.276 854.145,494.724 854.396,494.296C854.647,493.867 855.198,493.723 855.627,493.975L858.894,495.889C859.322,496.14 859.466,496.692 859.215,497.12C858.964,497.549 858.413,497.693 857.984,497.442L854.717,495.527ZM864.519,501.271C864.09,501.02 863.946,500.468 864.197,500.04C864.448,499.611 865,499.467 865.428,499.719L868.696,501.633C869.124,501.884 869.268,502.436 869.017,502.864C868.766,503.293 868.214,503.437 867.786,503.186L864.519,501.271ZM874.32,507.015C873.892,506.764 873.748,506.212 873.999,505.784C874.25,505.355 874.802,505.212 875.23,505.463L878.498,507.377C878.926,507.628 879.07,508.18 878.819,508.608C878.568,509.037 878.016,509.181 877.588,508.93L874.32,507.015ZM884.122,512.759C883.694,512.508 883.55,511.956 883.801,511.528C884.052,511.1 884.604,510.956 885.032,511.207L888.299,513.121C888.728,513.372 888.872,513.924 888.621,514.352C888.37,514.781 887.818,514.925 887.39,514.674L884.122,512.759ZM893.924,518.503C893.496,518.252 893.352,517.7 893.603,517.272C893.854,516.844 894.405,516.7 894.834,516.951L898.101,518.865C898.529,519.116 898.673,519.668 898.422,520.096C898.171,520.525 897.62,520.669 897.191,520.418L893.924,518.503ZM903.726,524.247C903.297,523.996 903.153,523.444 903.404,523.016C903.656,522.588 904.207,522.444 904.636,522.695L906.269,523.652C906.698,523.903 906.842,524.455 906.591,524.883C906.339,525.312 905.788,525.456 905.359,525.204L903.726,524.247Z" style="fill:rgb(74,110,182);"/>
                    </g>
                    <g transform="matrix(1.111475,0,0,1.111475,1600.583183,46.780789)">
                        <path d="M789.093,455.5C789.093,455.997 788.69,456.4 788.193,456.4C787.697,456.4 787.294,455.997 787.294,455.5L787.294,453.512C787.294,453.015 787.697,452.612 788.193,452.612C788.69,452.612 789.093,453.015 789.093,453.512L789.093,455.5ZM789.093,445.56C789.093,446.057 788.69,446.46 788.193,446.46C787.697,446.46 787.294,446.057 787.294,445.56L787.294,441.584C787.294,441.087 787.697,440.684 788.193,440.684C788.69,440.684 789.093,441.087 789.093,441.584L789.093,445.56ZM789.093,433.632C789.093,434.129 788.69,434.532 788.193,434.532C787.697,434.532 787.294,434.129 787.294,433.632L787.294,429.656C787.294,429.16 787.697,428.756 788.193,428.756C788.69,428.756 789.093,429.16 789.093,429.656L789.093,433.632ZM789.093,421.704C789.093,422.201 788.69,422.604 788.193,422.604C787.697,422.604 787.294,422.201 787.294,421.704L787.294,417.728C787.294,417.232 787.697,416.829 788.193,416.829C788.69,416.829 789.093,417.232 789.093,417.728L789.093,421.704ZM789.093,409.776C789.093,410.273 788.69,410.676 788.193,410.676C787.697,410.676 787.294,410.273 787.294,409.776L787.294,405.8C787.294,405.304 787.697,404.901 788.193,404.901C788.69,404.901 789.093,405.304 789.093,405.8L789.093,409.776ZM789.093,397.848C789.093,398.345 788.69,398.748 788.193,398.748C787.697,398.748 787.294,398.345 787.294,397.848L787.294,393.873C787.294,393.376 787.697,392.973 788.193,392.973C788.69,392.973 789.093,393.376 789.093,393.873L789.093,397.848ZM789.093,385.921C789.093,386.417 788.69,386.82 788.193,386.82C787.697,386.82 787.294,386.417 787.294,385.921L787.294,381.945C787.294,381.448 787.697,381.045 788.193,381.045C788.69,381.045 789.093,381.448 789.093,381.945L789.093,385.921ZM789.093,373.993C789.093,374.489 788.69,374.892 788.193,374.892C787.697,374.892 787.294,374.489 787.294,373.993L787.294,370.017C787.294,369.52 787.697,369.117 788.193,369.117C788.69,369.117 789.093,369.52 789.093,370.017L789.093,373.993ZM789.093,362.065C789.093,362.561 788.69,362.964 788.193,362.964C787.697,362.964 787.294,362.561 787.294,362.065L787.294,360.077C787.294,359.58 787.697,359.177 788.193,359.177C788.69,359.177 789.093,359.58 789.093,360.077L789.093,362.065Z" style="fill:rgb(74,110,182);"/>
                    </g>
                    <g id="Cube" transform="matrix(1,0,0,1,2169.372974,-162.516066)">
                        <g id="Safe-BG" serif:id="Safe BG" transform="matrix(0.333325,0,0,0.333325,213.616356,473.518881)">
                            <path d="M455.193,675L599.386,758.25L599.386,924.75L455.193,1008L311,924.75L311,758.25L455.193,675Z" style="fill:rgb(70,109,186);"/>
                        </g>
                        <g id="Face-Front" serif:id="Face Front" transform="matrix(1,0,0,1,0,158.530037)">
                            <path d="M317.28,567.732L317.28,623.231L365.344,650.98L365.344,595.482L317.28,567.732" style="fill:rgb(66,98,164);"/>
                        </g>
                        <g id="Face-Top" serif:id="Face Top" transform="matrix(0.5,-0.866025,0.866025,0.5,-333.030444,717.169045)">
                            <path d="M317.28,567.732L317.28,623.231L365.344,650.98L365.344,595.482L317.28,567.732" style="fill:rgb(74,110,182);"/>
                        </g>
                        <g id="Face-Side" serif:id="Face Side" transform="matrix(-1,0,0,1,730.687043,158.530037)">
                            <path d="M317.28,567.732L317.28,623.231L365.344,650.98L365.344,595.482L317.28,567.732" style="fill:rgb(59,88,145);"/>
                        </g>
                    </g>
                    <g transform="matrix(1.508755,0,0,1.508755,1867.092602,8.810355)">
                        <circle cx="442.5" cy="337.5" r="26.5" style="fill:url(#_Radial1);"/>
                    </g>
                    <g transform="matrix(1.649605,0,0,0.883163,1687.054543,325.522682)">
                        <path d="M442.5,364C427.874,364 412.631,349.941 416,337.5L442.5,226.8L469,337.5C472.369,349.941 457.126,364 442.5,364Z" style="fill:url(#_Linear2);"/>
                    </g>
                    <g transform="matrix(0.752398,0,0,0.752398,1812.065138,178.436911)">
                        <path d="M882.267,350.439C881.019,350.439 879.963,349.983 879.099,349.071C878.235,348.159 877.803,347.031 877.803,345.687L877.803,343.095C877.803,341.751 878.235,340.623 879.099,339.711C879.963,338.799 881.019,338.343 882.267,338.343L884.283,338.343C885.531,338.343 886.587,338.799 887.451,339.711C888.315,340.623 888.747,341.751 888.747,343.095L888.747,345.687C888.747,347.031 888.339,348.159 887.523,349.071C886.707,349.983 885.627,350.439 884.283,350.439L882.267,350.439Z" style="fill:rgb(74,110,182);fill-rule:nonzero;"/>
                    </g>
                    <g transform="matrix(0.752398,0,0,0.752398,1942.797992,370.550096)">
                        <path d="M882.267,350.439C881.019,350.439 879.963,349.983 879.099,349.071C878.235,348.159 877.803,347.031 877.803,345.687L877.803,343.095C877.803,341.751 878.235,340.623 879.099,339.711C879.963,338.799 881.019,338.343 882.267,338.343L884.283,338.343C885.531,338.343 886.587,338.799 887.451,339.711C888.315,340.623 888.747,341.751 888.747,343.095L888.747,345.687C888.747,347.031 888.339,348.159 887.523,349.071C886.707,349.983 885.627,350.439 884.283,350.439L882.267,350.439Z" style="fill:rgb(74,110,182);fill-rule:nonzero;"/>
                    </g>
                    <g transform="matrix(0.752398,0,0,0.752398,1679.369328,370.550096)">
                        <path d="M882.267,350.439C881.019,350.439 879.963,349.983 879.099,349.071C878.235,348.159 877.803,347.031 877.803,345.687L877.803,343.095C877.803,341.751 878.235,340.623 879.099,339.711C879.963,338.799 881.019,338.343 882.267,338.343L884.283,338.343C885.531,338.343 886.587,338.799 887.451,339.711C888.315,340.623 888.747,341.751 888.747,343.095L888.747,345.687C888.747,347.031 888.339,348.159 887.523,349.071C886.707,349.983 885.627,350.439 884.283,350.439L882.267,350.439Z" style="fill:rgb(74,110,182);fill-rule:nonzero;"/>
                    </g>
                </g>
                <g id="Diorama-Logotext" serif:id="Diorama Logotext" transform="matrix(1.496446,0,0,1.496446,1504.810388,-44.375173)">
                    <path d="M783.627,436.263C781.419,436.263 780.315,435.159 780.315,432.951L780.315,341.655C780.315,339.447 781.419,338.343 783.627,338.343L809.547,338.343C825.387,338.343 837.603,342.159 846.195,349.791C854.787,357.423 859.083,369.927 859.083,387.303C859.083,404.679 854.787,417.183 846.195,424.815C837.603,432.447 825.387,436.263 809.547,436.263L783.627,436.263ZM810.411,429.207C823.851,429.207 834.075,426.015 841.083,419.631C848.091,413.247 851.595,402.471 851.595,387.303C851.595,372.135 848.091,361.359 841.083,354.975C834.075,348.591 823.851,345.399 810.411,345.399L788.091,345.399L788.091,429.207L810.411,429.207Z" style="fill:rgb(74,110,182);fill-rule:nonzero;"/>
                    <path d="M882.267,350.439C881.019,350.439 879.963,349.983 879.099,349.071C878.235,348.159 877.803,347.031 877.803,345.687L877.803,343.095C877.803,341.751 878.235,340.623 879.099,339.711C879.963,338.799 881.019,338.343 882.267,338.343L884.283,338.343C885.531,338.343 886.587,338.799 887.451,339.711C888.315,340.623 888.747,341.751 888.747,343.095L888.747,345.687C888.747,347.031 888.339,348.159 887.523,349.071C886.707,349.983 885.627,350.439 884.283,350.439L882.267,350.439ZM882.699,436.263C880.491,436.263 879.387,435.159 879.387,432.951L879.387,370.455C879.387,368.247 880.491,367.143 882.699,367.143L883.851,367.143C886.059,367.143 887.163,368.247 887.163,370.455L887.163,432.951C887.163,435.159 886.059,436.263 883.851,436.263L882.699,436.263Z" style="fill:rgb(74,110,182);fill-rule:nonzero;"/>
                    <path d="M944.043,438.423C932.235,438.423 923.187,435.135 916.899,428.559C910.611,421.983 907.467,413.031 907.467,401.703C907.467,390.375 910.611,381.423 916.899,374.847C923.187,368.271 932.235,364.983 944.043,364.983C955.851,364.983 964.899,368.271 971.187,374.847C977.475,381.423 980.619,390.375 980.619,401.703C980.619,413.031 977.475,421.983 971.187,428.559C964.899,435.135 955.851,438.423 944.043,438.423ZM944.043,431.799C953.451,431.799 960.651,429.183 965.643,423.951C970.635,418.719 973.131,411.303 973.131,401.703C973.131,392.103 970.635,384.687 965.643,379.455C960.651,374.223 953.451,371.607 944.043,371.607C934.635,371.607 927.435,374.223 922.443,379.455C917.451,384.687 914.955,392.103 914.955,401.703C914.955,411.303 917.451,418.719 922.443,423.951C927.435,429.183 934.635,431.799 944.043,431.799Z" style="fill:rgb(74,110,182);fill-rule:nonzero;"/>
                    <path d="M1002.651,436.263C1000.443,436.263 999.339,435.159 999.339,432.951L999.339,370.455C999.339,369.303 999.531,368.463 999.915,367.935C1000.299,367.407 1001.019,367.143 1002.075,367.143L1003.515,367.143C1004.571,367.143 1005.291,367.407 1005.675,367.935C1006.059,368.463 1006.251,369.303 1006.251,370.455L1006.251,376.647C1008.843,372.999 1012.131,370.143 1016.115,368.079C1020.099,366.015 1024.779,364.983 1030.155,364.983C1031.307,364.983 1032.459,365.079 1033.611,365.271C1034.763,365.463 1035.579,365.703 1036.059,365.991C1036.827,366.471 1037.115,366.999 1036.923,367.575L1036.347,371.751C1036.251,372.615 1035.723,372.855 1034.763,372.471C1032.843,371.895 1030.683,371.607 1028.283,371.607C1022.235,371.607 1017.195,373.311 1013.163,376.719C1009.131,380.127 1007.115,384.903 1007.115,391.047L1007.115,432.951C1007.115,435.159 1006.011,436.263 1003.803,436.263L1002.651,436.263Z" style="fill:rgb(74,110,182);fill-rule:nonzero;"/>
                    <path d="M1081.995,438.423C1072.203,438.423 1064.427,435.639 1058.667,430.071C1052.907,424.503 1050.027,416.583 1050.027,406.311C1050.027,398.055 1051.635,390.831 1054.851,384.639C1058.067,378.447 1062.771,373.623 1068.963,370.167C1075.155,366.711 1082.523,364.983 1091.067,364.983C1096.347,364.983 1101.555,365.751 1106.691,367.287C1111.827,368.823 1116.075,370.743 1119.435,373.047L1119.435,432.951C1119.435,435.159 1118.331,436.263 1116.123,436.263L1115.115,436.263C1114.059,436.263 1113.315,435.999 1112.883,435.471C1112.451,434.943 1112.187,434.103 1112.091,432.951L1111.659,426.039C1105.131,434.295 1095.243,438.423 1081.995,438.423ZM1084.875,431.799C1089.291,431.799 1093.563,430.911 1097.691,429.135C1101.819,427.359 1105.179,424.791 1107.771,421.431C1110.363,418.071 1111.659,414.183 1111.659,409.767L1111.659,376.503C1109.163,375.063 1106.067,373.887 1102.371,372.975C1098.675,372.063 1094.907,371.607 1091.067,371.607C1080.699,371.607 1072.515,374.583 1066.515,380.535C1060.515,386.487 1057.515,394.791 1057.515,405.447C1057.515,414.471 1059.747,421.119 1064.211,425.391C1068.675,429.663 1075.563,431.799 1084.875,431.799Z" style="fill:rgb(74,110,182);fill-rule:nonzero;"/>
                    <path d="M1144.347,436.263C1142.139,436.263 1141.035,435.159 1141.035,432.951L1141.035,370.455C1141.035,369.303 1141.227,368.463 1141.611,367.935C1141.995,367.407 1142.715,367.143 1143.771,367.143L1145.211,367.143C1146.267,367.143 1146.987,367.407 1147.371,367.935C1147.755,368.463 1147.947,369.303 1147.947,370.455L1147.947,378.087C1150.731,373.863 1154.043,370.623 1157.883,368.367C1161.723,366.111 1166.427,364.983 1171.995,364.983C1176.411,364.983 1180.275,366.135 1183.587,368.439C1186.899,370.743 1189.035,374.055 1189.995,378.375C1192.491,374.151 1195.827,370.863 1200.003,368.511C1204.179,366.159 1209.003,364.983 1214.475,364.983C1220.811,364.983 1225.899,366.927 1229.739,370.815C1233.579,374.703 1235.499,380.535 1235.499,388.311L1235.499,432.951C1235.499,435.159 1234.395,436.263 1232.187,436.263L1231.035,436.263C1228.827,436.263 1227.723,435.159 1227.723,432.951L1227.723,388.599C1227.723,382.455 1226.451,378.087 1223.907,375.495C1221.363,372.903 1217.595,371.607 1212.603,371.607C1206.843,371.607 1201.995,373.503 1198.059,377.295C1194.123,381.087 1192.155,385.959 1192.155,391.911L1192.155,432.951C1192.155,435.159 1191.051,436.263 1188.843,436.263L1187.691,436.263C1185.483,436.263 1184.379,435.159 1184.379,432.951L1184.379,387.447C1184.379,381.975 1183.203,377.967 1180.851,375.423C1178.499,372.879 1174.923,371.607 1170.123,371.607C1166.283,371.607 1162.731,372.495 1159.467,374.271C1156.203,376.047 1153.611,378.567 1151.691,381.831C1149.771,385.095 1148.811,388.743 1148.811,392.775L1148.811,432.951C1148.811,435.159 1147.707,436.263 1145.499,436.263L1144.347,436.263Z" style="fill:rgb(74,110,182);fill-rule:nonzero;"/>
                    <path d="M1285.467,438.423C1275.675,438.423 1267.899,435.639 1262.139,430.071C1256.379,424.503 1253.499,416.583 1253.499,406.311C1253.499,398.055 1255.107,390.831 1258.323,384.639C1261.539,378.447 1266.243,373.623 1272.435,370.167C1278.627,366.711 1285.995,364.983 1294.539,364.983C1299.819,364.983 1305.027,365.751 1310.163,367.287C1315.299,368.823 1319.547,370.743 1322.907,373.047L1322.907,432.951C1322.907,435.159 1321.803,436.263 1319.595,436.263L1318.587,436.263C1317.531,436.263 1316.787,435.999 1316.355,435.471C1315.923,434.943 1315.659,434.103 1315.563,432.951L1315.131,426.039C1308.603,434.295 1298.715,438.423 1285.467,438.423ZM1288.347,431.799C1292.763,431.799 1297.035,430.911 1301.163,429.135C1305.291,427.359 1308.651,424.791 1311.243,421.431C1313.835,418.071 1315.131,414.183 1315.131,409.767L1315.131,376.503C1312.635,375.063 1309.539,373.887 1305.843,372.975C1302.147,372.063 1298.379,371.607 1294.539,371.607C1284.171,371.607 1275.987,374.583 1269.987,380.535C1263.987,386.487 1260.987,394.791 1260.987,405.447C1260.987,414.471 1263.219,421.119 1267.683,425.391C1272.147,429.663 1279.035,431.799 1288.347,431.799Z" style="fill:rgb(74,110,182);fill-rule:nonzero;"/>
                </g>
            </g>
        </g>
    </g>
    <defs>
        <radialGradient id="_Radial1" cx="0" cy="0" r="1" gradientUnits="userSpaceOnUse" gradientTransform="matrix(28.500328,31.151521,-31.151521,28.500328,434.981533,329.534487)"><stop offset="0" style="stop-color:rgb(74,110,182);stop-opacity:1"/><stop offset="1" style="stop-color:rgb(14,22,38);stop-opacity:1"/></radialGradient>
        <linearGradient id="_Linear2" x1="0" y1="0" x2="1" y2="0" gradientUnits="userSpaceOnUse" gradientTransform="matrix(-44.741521,-33.807576,18.099855,-83.569863,468.917289,337.154486)"><stop offset="0" style="stop-color:rgb(14,22,38);stop-opacity:1"/><stop offset="1" style="stop-color:rgb(74,110,182);stop-opacity:1"/></linearGradient>
    </defs>
</svg>
