<?xml version="1.0" encoding="UTF-8" standalone="no"?>
<!DOCTYPE svg PUBLIC "-//W3C//DTD SVG 1.1//EN" "http://www.w3.org/Graphics/SVG/1.1/DTD/svg11.dtd">
<svg width="100%" height="100%" viewBox="0 0 235 55" version="1.1" xmlns="http://www.w3.org/2000/svg" xmlns:xlink="http://www.w3.org/1999/xlink" xml:space="preserve" xmlns:serif="http://www.serif.com/" style="fill-rule:evenodd;clip-rule:evenodd;stroke-linejoin:round;stroke-miterlimit:2;">
    <g transform="matrix(1,0,0,1,-205.994297,-731.130058)">
        <g transform="matrix(1,0,0,1.06996,0,0)">
            <g transform="matrix(0.125751,0,0,0.048117,165.4015,664.394935)">
                <path d="M562.133,835.34C574.348,754.226 577.974,687.796 573.012,636.051C568.05,584.306 555.453,558.433 535.223,558.433C525.299,558.433 515.947,566.591 507.168,582.907C498.388,599.223 492.09,620.434 488.273,646.54C481.402,693.157 479.017,734.88 481.116,771.707C483.215,808.535 488.178,841.867 496.003,871.702C503.828,901.537 512.607,929.74 522.34,956.312C532.074,982.884 541.139,1009.456 549.537,1036.028C557.935,1062.6 563.756,1091.036 567,1121.338C570.245,1151.639 569.004,1185.903 563.278,1224.129C557.171,1264.22 547.056,1302.446 532.933,1338.808C518.81,1375.169 501.251,1404.538 480.257,1426.915C459.263,1449.291 435.216,1460.479 408.115,1460.479C387.884,1460.479 371.757,1448.592 359.733,1424.817C347.71,1401.042 338.93,1370.508 333.396,1333.214C327.861,1295.92 324.33,1256.761 322.803,1215.738C322.803,1208.279 325.571,1198.956 331.105,1187.768C336.64,1176.579 343.034,1166.324 350.286,1157C357.538,1147.677 364.123,1141.15 370.039,1137.421C375.956,1133.691 379.105,1135.556 379.487,1143.015C381.395,1214.806 388.457,1273.543 400.671,1319.228C412.886,1364.914 427.773,1387.756 445.331,1387.756C459.454,1387.756 472.337,1378.433 483.979,1359.786C495.621,1341.139 503.541,1317.364 507.74,1288.461C512.702,1254.897 513.466,1224.129 510.03,1196.159C506.595,1168.188 500.679,1141.383 492.281,1115.744C483.883,1090.104 474.818,1063.765 465.084,1036.727C455.351,1009.689 446.667,980.786 439.033,950.019C431.399,919.251 426.627,884.288 424.719,845.13C422.81,805.971 425.482,761.219 432.735,710.872C437.697,678.24 446.285,644.442 458.5,609.479C470.715,574.516 486.365,545.147 505.45,521.372C524.535,497.597 546.865,485.71 572.439,485.71C598.396,485.71 616.145,508.086 625.688,552.839C635.23,597.592 632.558,670.315 617.672,771.008C616.145,780.332 612.232,790.588 605.934,801.776C599.636,812.964 592.861,822.987 585.608,831.844C578.356,840.701 572.249,845.829 567.286,847.228C562.324,848.626 560.607,844.664 562.133,835.34Z" style="fill:rgb(74,110,182);fill-rule:nonzero;"/>
                <path d="M760.812,481.514L645.155,1259.092C639.047,1301.048 635.326,1335.545 633.99,1362.583C632.654,1389.621 632.463,1409.666 633.417,1422.719C634.371,1435.772 634.658,1443.231 634.276,1445.095C633.894,1450.689 631.986,1453.487 628.55,1453.487C609.465,1453.487 597.537,1428.546 592.765,1378.666C587.994,1328.785 591.525,1264.686 603.358,1186.369L719.587,403.197C720.733,396.671 723.023,393.408 726.458,393.408C731.039,393.408 736.287,398.769 742.204,409.491C748.12,420.213 753.082,432.333 757.09,445.852C761.098,459.371 762.339,471.259 760.812,481.514Z" style="fill:rgb(74,110,182);fill-rule:nonzero;"/>
                <path d="M795.165,572.418L807.762,488.507C809.289,478.251 812.438,474.755 817.209,478.018C821.98,481.281 827.133,488.274 832.668,498.996C838.203,509.718 842.593,521.372 845.837,533.959C849.082,546.546 850.131,557.501 848.986,566.824L836.39,650.735C834.863,660.991 831.714,664.488 826.943,661.224C822.171,657.961 817.114,650.969 811.77,640.247C806.426,629.525 802.036,617.87 798.601,605.283C795.165,592.697 794.02,581.742 795.165,572.418ZM677.791,1365.38L769.4,752.827C770.927,742.572 774.076,739.075 778.847,742.339C783.619,745.602 788.676,752.594 794.02,763.316C799.364,774.038 803.754,785.693 807.189,798.279C810.625,810.866 811.579,821.821 810.052,831.145L719.015,1443.697C717.488,1453.953 714.339,1457.449 709.568,1454.186C704.796,1450.923 699.643,1443.93 694.109,1433.208C688.574,1422.486 684.184,1410.832 680.94,1398.245C677.695,1385.658 676.645,1374.703 677.791,1365.38Z" style="fill:rgb(74,110,182);fill-rule:nonzero;"/>
                <path d="M997.852,1266.085C990.218,1297.784 980.198,1328.552 967.792,1358.387C955.387,1388.222 941.073,1412.696 924.85,1431.809C908.628,1450.923 890.592,1460.479 870.743,1460.479C850.131,1460.479 834.195,1449.99 822.935,1429.012C811.674,1408.035 804.136,1380.297 800.318,1345.8C796.501,1311.304 795.643,1274.01 797.742,1233.919C799.841,1193.828 803.754,1154.203 809.479,1115.044C815.205,1077.751 823.316,1037.893 833.813,995.471C844.31,953.049 857.288,912.958 872.747,875.198C888.206,837.438 906.338,806.671 927.141,782.896C947.944,759.121 971.323,747.233 997.279,747.233C1019.418,747.233 1034.591,767.279 1042.798,807.37C1051.004,847.461 1050.718,895.943 1041.939,952.816C1040.794,962.139 1036.881,972.628 1030.201,984.283C1023.522,995.937 1016.365,1006.193 1008.73,1015.05C1001.096,1023.907 994.703,1029.502 989.55,1031.832C984.397,1034.163 982.584,1030.201 984.11,1019.945C991.744,967.734 991.744,924.146 984.11,889.183C976.476,854.22 964.262,836.739 947.466,836.739C944.413,836.739 940.119,838.37 934.584,841.634C929.049,844.897 922.56,853.754 915.117,868.205C907.674,882.657 899.658,907.131 891.069,941.628C882.481,976.125 873.415,1024.607 863.873,1087.074C853.948,1154.203 849.654,1209.211 850.99,1252.099C852.326,1294.987 856.334,1326.92 863.014,1347.898C869.694,1368.876 876.278,1379.365 882.767,1379.365C887.348,1379.365 892.596,1377.966 898.513,1375.169C904.429,1372.372 910.918,1364.68 917.98,1352.094C925.041,1339.507 932.007,1319.228 938.878,1291.258C940.787,1282.867 945.272,1275.175 952.333,1268.182C959.395,1261.19 966.934,1255.829 974.949,1252.099C982.965,1248.37 989.359,1247.438 994.13,1249.302C998.901,1251.167 1000.142,1256.761 997.852,1266.085Z" style="fill:rgb(74,110,182);fill-rule:nonzero;"/>
                <path d="M1226.876,1347.199C1208.936,1383.56 1191.759,1411.531 1175.346,1431.11C1158.932,1450.689 1142.328,1460.479 1125.533,1460.479C1105.302,1460.479 1088.984,1451.622 1076.579,1433.907C1064.173,1416.193 1055.012,1392.651 1049.096,1363.282C1043.179,1333.913 1039.649,1301.514 1038.504,1266.085C1037.358,1230.655 1038.122,1194.993 1040.794,1159.098C1043.466,1123.202 1047.283,1089.871 1052.245,1059.104C1062.551,993.839 1076.579,937.199 1094.328,889.183C1112.078,841.167 1131.163,803.64 1151.584,776.602C1172.006,749.564 1190.995,736.045 1208.554,736.045C1219.242,736.045 1230.12,740.94 1241.19,750.73C1252.259,760.519 1261.898,774.971 1270.104,794.084C1278.311,813.197 1283.846,836.972 1286.709,865.408C1289.571,893.845 1287.949,927.176 1281.842,965.403C1272.299,1027.87 1253.786,1084.51 1226.303,1135.323C1198.82,1186.136 1159.696,1222.264 1108.929,1243.708C1105.493,1245.573 1101.199,1242.776 1096.046,1235.317C1090.893,1227.858 1086.408,1219.001 1082.591,1208.745C1077.629,1247.904 1075.147,1278.205 1075.147,1299.649C1075.147,1321.093 1076.579,1336.244 1079.442,1345.101C1082.304,1353.958 1085.549,1359.086 1089.175,1360.485C1092.801,1361.883 1095.76,1362.583 1098.05,1362.583C1110.264,1362.583 1124.388,1353.492 1140.419,1335.311C1156.451,1317.131 1172.864,1291.258 1189.66,1257.694C1192.713,1251.167 1196.817,1250.934 1201.97,1256.994C1207.123,1263.055 1212.18,1272.145 1217.142,1284.265C1222.105,1296.386 1225.731,1308.506 1228.021,1320.627C1230.311,1332.748 1229.93,1341.605 1226.876,1347.199ZM1092.324,1137.421L1091.752,1141.616C1123.052,1125.766 1150.821,1102.691 1175.059,1072.39C1199.298,1042.088 1218.956,1010.388 1234.033,977.29C1249.11,944.192 1258.748,915.056 1262.947,889.883C1263.711,886.153 1263.997,879.86 1263.806,871.002C1263.615,862.145 1261.611,853.754 1257.794,845.829C1253.977,837.904 1246.725,833.942 1236.037,833.942C1223.059,833.942 1209.413,842.333 1195.099,859.115C1180.785,875.897 1167.043,898.507 1153.874,926.943C1140.706,955.38 1128.777,987.779 1118.089,1024.141C1107.402,1060.502 1098.813,1098.262 1092.324,1137.421Z" style="fill:rgb(74,110,182);fill-rule:nonzero;"/>
                <path d="M1364.863,824.152L1357.992,1207.347L1478.23,750.03C1479.757,743.504 1482.429,741.173 1486.246,743.038C1490.063,743.038 1494.93,747.933 1500.846,757.722C1506.763,767.512 1511.916,778.933 1516.305,791.986C1520.695,805.039 1522.508,816.693 1521.745,826.949L1498.27,1240.911C1517.355,1184.97 1535.868,1117.841 1553.808,1039.524C1571.748,961.207 1589.116,865.641 1605.911,752.827C1607.438,742.572 1610.587,739.075 1615.358,742.339C1620.129,745.602 1625.283,752.594 1630.817,763.316C1636.352,774.038 1640.742,785.693 1643.986,798.279C1647.231,810.866 1648.28,821.821 1647.135,831.145C1631.485,936.5 1615.167,1027.637 1598.181,1104.556C1581.195,1181.474 1563.732,1247.671 1545.792,1303.145C1527.852,1358.62 1509.148,1407.801 1489.681,1450.689C1487.773,1455.351 1485.101,1456.284 1481.665,1453.487C1477.467,1454.419 1472.409,1449.99 1466.492,1440.201C1460.576,1430.411 1455.423,1418.757 1451.033,1405.238C1446.644,1391.718 1444.64,1379.831 1445.021,1369.575L1463.343,1042.321L1356.275,1447.892C1354.366,1455.351 1350.74,1457.216 1345.396,1453.487C1341.579,1452.554 1336.903,1447.426 1331.368,1438.103C1325.833,1428.779 1321.062,1418.057 1317.054,1405.937C1313.046,1393.816 1311.233,1382.628 1311.615,1372.372L1323.066,759.82C1323.066,746.767 1325.261,740.707 1329.651,741.639C1334.04,742.572 1339.002,747.7 1344.537,757.023C1350.072,766.346 1354.939,777.302 1359.137,789.888C1363.336,802.475 1365.245,813.896 1364.863,824.152Z" style="fill:rgb(74,110,182);fill-rule:nonzero;"/>
                <path d="M1726.721,572.418L1739.317,488.507C1740.844,478.251 1743.993,474.755 1748.765,478.018C1753.536,481.281 1758.689,488.274 1764.224,498.996C1769.759,509.718 1774.148,521.372 1777.393,533.959C1780.637,546.546 1781.687,557.501 1780.542,566.824L1767.945,650.735C1766.419,660.991 1763.27,664.488 1758.498,661.224C1753.727,657.961 1748.669,650.969 1743.325,640.247C1737.981,629.525 1733.592,617.87 1730.156,605.283C1726.721,592.697 1725.576,581.742 1726.721,572.418ZM1609.346,1365.38L1700.956,752.827C1702.483,742.572 1705.632,739.075 1710.403,742.339C1715.175,745.602 1720.232,752.594 1725.576,763.316C1730.92,774.038 1735.31,785.693 1738.745,798.279C1742.18,810.866 1743.135,821.821 1741.608,831.145L1650.571,1443.697C1649.044,1453.953 1645.895,1457.449 1641.123,1454.186C1636.352,1450.923 1631.199,1443.93 1625.664,1433.208C1620.129,1422.486 1615.74,1410.832 1612.495,1398.245C1609.251,1385.658 1608.201,1374.703 1609.346,1365.38Z" style="fill:rgb(74,110,182);fill-rule:nonzero;"/>
                <path d="M1892.191,984.982C1892.954,949.553 1891.523,919.951 1887.897,896.176C1884.271,872.401 1879.976,854.686 1875.014,843.032C1870.052,831.378 1865.853,825.551 1862.418,825.551C1861.655,825.551 1859.46,826.25 1855.833,827.648C1852.207,829.047 1848.199,834.175 1843.81,843.032C1839.42,851.889 1835.508,867.506 1832.072,889.883C1827.873,918.785 1827.11,944.425 1829.782,966.801C1832.454,989.178 1837.034,1009.456 1843.523,1027.637C1850.012,1045.818 1857.36,1063.532 1865.567,1080.781C1873.774,1098.029 1881.217,1115.511 1887.897,1133.225C1894.577,1150.94 1899.348,1170.053 1902.211,1190.565C1905.074,1211.076 1904.597,1234.385 1900.779,1260.491C1896.199,1292.19 1888.088,1321.093 1876.446,1347.199C1864.804,1373.305 1851.062,1394.049 1835.221,1409.433C1819.38,1424.817 1802.872,1432.509 1785.695,1432.509C1769.281,1432.509 1755.826,1428.313 1745.329,1419.922C1734.832,1411.531 1726.53,1396.38 1720.423,1374.47C1714.316,1352.56 1709.544,1322.026 1706.109,1282.867C1705.346,1276.341 1707.54,1267.716 1712.693,1256.994C1717.846,1246.272 1723.858,1236.25 1730.729,1226.926C1737.6,1217.603 1743.898,1211.076 1749.624,1207.347C1755.349,1203.617 1758.403,1205.482 1758.785,1212.941C1763.747,1267.017 1771.572,1307.807 1782.259,1335.311C1792.947,1362.816 1803.063,1376.568 1812.605,1376.568C1819.094,1376.568 1825.774,1373.072 1832.645,1366.079C1839.516,1359.086 1844.859,1343.47 1848.676,1319.228C1851.73,1297.784 1851.635,1278.205 1848.39,1260.491C1845.146,1242.776 1839.993,1225.761 1832.931,1209.445C1825.87,1193.129 1818.331,1176.579 1810.315,1159.797C1802.299,1143.015 1795.047,1124.368 1788.558,1103.856C1782.069,1083.345 1777.679,1060.502 1775.389,1035.329C1773.099,1010.155 1774.434,981.253 1779.397,948.62C1783.595,920.65 1790.848,891.98 1801.154,862.611C1811.46,833.242 1823.866,808.535 1838.37,788.49C1852.875,768.444 1868.525,758.422 1885.32,758.422C1909.75,758.422 1926.258,773.339 1934.847,803.174C1943.435,833.009 1946.966,871.236 1945.439,917.853C1945.439,926.244 1942.672,935.801 1937.137,946.523C1931.602,957.245 1925.304,967.034 1918.243,975.892C1911.181,984.749 1904.978,990.576 1899.634,993.373C1894.29,996.17 1891.809,993.373 1892.191,984.982Z" style="fill:rgb(74,110,182);fill-rule:nonzero;"/>
                <path d="M2129.231,1347.199C2111.291,1383.56 2094.114,1411.531 2077.701,1431.11C2061.287,1450.689 2044.683,1460.479 2027.888,1460.479C2007.657,1460.479 1991.339,1451.622 1978.934,1433.907C1966.528,1416.193 1957.368,1392.651 1951.451,1363.282C1945.535,1333.913 1942.004,1301.514 1940.859,1266.085C1939.714,1230.655 1940.477,1194.993 1943.149,1159.098C1945.821,1123.202 1949.638,1089.871 1954.6,1059.104C1964.906,993.839 1978.934,937.199 1996.683,889.183C2014.433,841.167 2033.518,803.64 2053.939,776.602C2074.361,749.564 2093.351,736.045 2110.909,736.045C2121.597,736.045 2132.476,740.94 2143.545,750.73C2154.615,760.519 2164.253,774.971 2172.459,794.084C2180.666,813.197 2186.201,836.972 2189.064,865.408C2191.926,893.845 2190.304,927.176 2184.197,965.403C2174.654,1027.87 2156.141,1084.51 2128.659,1135.323C2101.176,1186.136 2062.051,1222.264 2011.284,1243.708C2007.848,1245.573 2003.554,1242.776 1998.401,1235.317C1993.248,1227.858 1988.763,1219.001 1984.946,1208.745C1979.984,1247.904 1977.503,1278.205 1977.503,1299.649C1977.503,1321.093 1978.934,1336.244 1981.797,1345.101C1984.66,1353.958 1987.904,1359.086 1991.53,1360.485C1995.157,1361.883 1998.115,1362.583 2000.405,1362.583C2012.62,1362.583 2026.743,1353.492 2042.774,1335.311C2058.806,1317.131 2075.22,1291.258 2092.015,1257.694C2095.068,1251.167 2099.172,1250.934 2104.325,1256.994C2109.478,1263.055 2114.535,1272.145 2119.498,1284.265C2124.46,1296.386 2128.086,1308.506 2130.376,1320.627C2132.666,1332.748 2132.285,1341.605 2129.231,1347.199ZM1994.679,1137.421L1994.107,1141.616C2025.407,1125.766 2053.176,1102.691 2077.414,1072.39C2101.653,1042.088 2121.311,1010.388 2136.388,977.29C2151.465,944.192 2161.104,915.056 2165.302,889.883C2166.066,886.153 2166.352,879.86 2166.161,871.002C2165.97,862.145 2163.966,853.754 2160.149,845.829C2156.332,837.904 2149.08,833.942 2138.392,833.942C2125.414,833.942 2111.768,842.333 2097.454,859.115C2083.14,875.897 2069.399,898.507 2056.23,926.943C2043.061,955.38 2031.132,987.779 2020.445,1024.141C2009.757,1060.502 2001.168,1098.262 1994.679,1137.421Z" style="fill:rgb(74,110,182);fill-rule:nonzero;"/>
            </g>
        </g>
    </g>
</svg>
